<svg xmlns="http://www.w3.org/2000/svg" width="213.82" height="35" viewBox="0 0 213.82 35"><rect class="svg__rect" x="0" y="0" width="81.42" height="35" fill="#31C4F3"/><rect class="svg__rect" x="79.42" y="0" width="134.4" height="35" fill="#389AD5"/><path class="svg__text" d="M17.33 22L14.22 22L14.22 13.47L17.14 13.47Q18.59 13.47 19.34 14.05Q20.10 14.63 20.10 15.78L20.10 15.78Q20.10 16.36 19.78 16.83Q19.47 17.30 18.86 17.56L18.86 17.56Q19.55 17.75 19.93 18.26Q20.31 18.78 20.31 19.51L20.31 19.51Q20.31 20.71 19.53 21.36Q18.76 22 17.33 22L17.33 22ZM15.70 18.15L15.70 20.82L17.35 20.82Q18.04 20.82 18.44 20.47Q18.83 20.13 18.83 19.51L18.83 19.51Q18.83 18.18 17.47 18.15L17.47 18.15L15.70 18.15ZM15.70 14.66L15.70 17.06L17.15 17.06Q17.84 17.06 18.23 16.75Q18.62 16.43 18.62 15.86L18.62 15.86Q18.62 15.23 18.26 14.95Q17.90 14.66 17.14 14.66L17.14 14.66L15.70 14.66ZM30.13 22L24.78 22L24.78 13.47L26.26 13.47L26.26 20.82L30.13 20.82L30.13 22ZM33.99 18.00L33.99 18.00L33.99 17.52Q33.99 16.28 34.43 15.32Q34.87 14.37 35.68 13.86Q36.48 13.35 37.53 13.35Q38.57 13.35 39.37 13.85Q40.18 14.35 40.62 15.29Q41.06 16.23 41.06 17.48L41.06 17.48L41.06 17.96Q41.06 19.21 40.63 20.16Q40.20 21.10 39.39 21.61Q38.59 22.12 37.54 22.12L37.54 22.12Q36.50 22.12 35.69 21.61Q34.88 21.10 34.43 20.17Q33.99 19.23 33.99 18.00ZM35.47 17.46L35.47 17.96Q35.47 19.36 36.02 20.13Q36.56 20.90 37.54 20.90L37.54 20.90Q38.52 20.90 39.05 20.15Q39.58 19.40 39.58 17.96L39.58 17.96L39.58 17.51Q39.58 16.09 39.05 15.34Q38.51 14.58 37.53 14.58L37.53 14.58Q36.56 14.58 36.02 15.33Q35.48 16.09 35.47 17.46L35.47 17.46ZM45.28 18.13L45.28 18.13L45.28 17.46Q45.28 15.53 46.21 14.44Q47.14 13.35 48.79 13.35L48.79 13.35Q50.22 13.35 51.06 14.05Q51.89 14.76 52.06 16.08L52.06 16.08L50.61 16.08Q50.36 14.54 48.82 14.54L48.82 14.54Q47.83 14.54 47.31 15.26Q46.79 15.98 46.77 17.37L46.77 17.37L46.77 18.02Q46.77 19.40 47.35 20.17Q47.94 20.93 48.98 20.93L48.98 20.93Q50.11 20.93 50.59 20.42L50.59 20.42L50.59 18.75L48.83 18.75L48.83 17.62L52.07 17.62L52.07 20.89Q51.61 21.50 50.79 21.81Q49.97 22.12 48.92 22.12L48.92 22.12Q47.85 22.12 47.02 21.63Q46.20 21.14 45.75 20.24Q45.30 19.33 45.28 18.13ZM57.23 16.02L56.30 16.02L56.30 13L57.38 13L57.38 13.73L57.23 16.02ZM61.27 19.42L61.27 19.42L62.75 19.42Q62.75 20.15 63.23 20.55Q63.71 20.95 64.61 20.95L64.61 20.95Q65.38 20.95 65.77 20.63Q66.16 20.32 66.16 19.80L66.16 19.80Q66.16 19.24 65.77 18.94Q65.37 18.63 64.34 18.32Q63.31 18.01 62.70 17.63L62.70 17.63Q61.53 16.90 61.53 15.72L61.53 15.72Q61.53 14.69 62.37 14.02Q63.21 13.35 64.56 13.35L64.56 13.35Q65.45 13.35 66.14 13.68Q66.84 14.01 67.24 14.61Q67.64 15.22 67.64 15.96L67.64 15.96L66.16 15.96Q66.16 15.29 65.74 14.91Q65.32 14.54 64.54 14.54L64.54 14.54Q63.82 14.54 63.42 14.85Q63.01 15.16 63.01 15.71L63.01 15.71Q63.01 16.18 63.45 16.50Q63.88 16.81 64.88 17.10Q65.87 17.40 66.48 17.78Q67.08 18.16 67.36 18.65Q67.64 19.13 67.64 19.79L67.64 19.79Q67.64 20.86 66.83 21.49Q66.01 22.12 64.61 22.12L64.61 22.12Q63.68 22.12 62.91 21.77Q62.13 21.43 61.70 20.83Q61.27 20.22 61.27 19.42Z" fill="#FFFFFF"/><path class="svg__text" d="M95.46 22L92.75 22L95.81 17.75L92.88 13.60L95.55 13.60L97.23 16.02L98.89 13.60L101.46 13.60L98.53 17.66L101.65 22L98.92 22L97.18 19.40L95.46 22ZM112.68 22L105.94 22L105.94 13.60L112.53 13.60L112.53 15.44L108.29 15.44L108.29 16.85L112.02 16.85L112.02 18.63L108.29 18.63L108.29 20.17L112.68 20.17L112.68 22ZM119.86 22L117.48 22L117.48 13.60L121.33 13.60Q122.47 13.60 123.31 13.98Q124.15 14.35 124.60 15.06Q125.06 15.76 125.06 16.71L125.06 16.71Q125.06 17.62 124.63 18.30Q124.21 18.98 123.41 19.36L123.41 19.36L125.23 22L122.68 22L121.16 19.77L119.86 19.77L119.86 22ZM119.86 15.47L119.86 17.93L121.18 17.93Q121.91 17.93 122.29 17.61Q122.66 17.29 122.66 16.71L122.66 16.71Q122.66 16.12 122.29 15.79Q121.91 15.47 121.18 15.47L121.18 15.47L119.86 15.47ZM129.42 17.80L129.42 17.80Q129.42 16.55 130.02 15.55Q130.63 14.56 131.69 14.00Q132.75 13.43 134.08 13.43L134.08 13.43Q135.41 13.43 136.48 14.00Q137.54 14.56 138.15 15.55Q138.75 16.55 138.75 17.80L138.75 17.80Q138.75 19.05 138.15 20.04Q137.54 21.04 136.48 21.60Q135.42 22.17 134.08 22.17L134.08 22.17Q132.75 22.17 131.69 21.60Q130.63 21.04 130.02 20.04Q129.42 19.05 129.42 17.80ZM131.82 17.80L131.82 17.80Q131.82 18.51 132.12 19.05Q132.42 19.60 132.94 19.90Q133.45 20.20 134.08 20.20L134.08 20.20Q134.72 20.20 135.24 19.90Q135.75 19.60 136.05 19.05Q136.35 18.51 136.35 17.80L136.35 17.80Q136.35 17.09 136.05 16.54Q135.75 16 135.24 15.70Q134.72 15.40 134.08 15.40L134.08 15.40Q133.45 15.40 132.93 15.70Q132.42 16 132.12 16.54Q131.82 17.09 131.82 17.80ZM143.06 17.80L143.06 17.80Q143.06 16.54 143.65 15.54Q144.25 14.55 145.30 13.99Q146.35 13.43 147.67 13.43L147.67 13.43Q148.83 13.43 149.75 13.84Q150.67 14.25 151.29 15.02L151.29 15.02L149.78 16.39Q148.96 15.40 147.80 15.40L147.80 15.40Q147.11 15.40 146.58 15.70Q146.04 16 145.75 16.54Q145.45 17.09 145.45 17.80L145.45 17.80Q145.45 18.51 145.75 19.05Q146.04 19.60 146.58 19.90Q147.11 20.20 147.80 20.20L147.80 20.20Q148.96 20.20 149.78 19.22L149.78 19.22L151.29 20.58Q150.68 21.35 149.75 21.76Q148.83 22.17 147.67 22.17L147.67 22.17Q146.35 22.17 145.30 21.61Q144.25 21.05 143.65 20.05Q143.06 19.06 143.06 17.80ZM155.40 17.80L155.40 17.80Q155.40 16.55 156.00 15.55Q156.60 14.56 157.67 14.00Q158.73 13.43 160.06 13.43L160.06 13.43Q161.39 13.43 162.45 14.00Q163.52 14.56 164.12 15.55Q164.73 16.55 164.73 17.80L164.73 17.80Q164.73 19.05 164.12 20.04Q163.52 21.04 162.46 21.60Q161.40 22.17 160.06 22.17L160.06 22.17Q158.73 22.17 157.67 21.60Q156.60 21.04 156.00 20.04Q155.40 19.05 155.40 17.80ZM157.79 17.80L157.79 17.80Q157.79 18.51 158.09 19.05Q158.40 19.60 158.91 19.90Q159.43 20.20 160.06 20.20L160.06 20.20Q160.70 20.20 161.21 19.90Q161.73 19.60 162.03 19.05Q162.33 18.51 162.33 17.80L162.33 17.80Q162.33 17.09 162.03 16.54Q161.73 16 161.21 15.70Q160.70 15.40 160.06 15.40L160.06 15.40Q159.42 15.40 158.91 15.70Q158.40 16 158.09 16.54Q157.79 17.09 157.79 17.80ZM173.43 22L169.46 22L169.46 13.60L173.43 13.60Q174.81 13.60 175.88 14.12Q176.95 14.63 177.53 15.58Q178.12 16.53 178.12 17.80L178.12 17.80Q178.12 19.07 177.53 20.02Q176.95 20.97 175.88 21.48Q174.81 22 173.43 22L173.43 22ZM171.84 15.50L171.84 20.10L173.34 20.10Q174.41 20.10 175.07 19.49Q175.72 18.88 175.72 17.80L175.72 17.80Q175.72 16.72 175.07 16.11Q174.41 15.50 173.34 15.50L173.34 15.50L171.84 15.50ZM189.60 22L182.85 22L182.85 13.60L189.44 13.60L189.44 15.44L185.21 15.44L185.21 16.85L188.94 16.85L188.94 18.63L185.21 18.63L185.21 20.17L189.60 20.17L189.60 22ZM201.15 22L194.40 22L194.40 13.60L200.99 13.60L200.99 15.44L196.76 15.44L196.76 16.85L200.49 16.85L200.49 18.63L196.76 18.63L196.76 20.17L201.15 20.17L201.15 22Z" fill="#FFFFFF" x="92.42"/></svg>