<svg xmlns="http://www.w3.org/2000/svg" width="224.64999999999998" height="35" viewBox="0 0 224.64999999999998 35"><rect class="svg__rect" x="0" y="0" width="92.26" height="35" fill="#31C4F3"/><rect class="svg__rect" x="90.26" y="0" width="134.39" height="35" fill="#389AD5"/><path class="svg__text" d="M17.33 22L14.22 22L14.22 13.47L17.14 13.47Q18.59 13.47 19.34 14.05Q20.10 14.63 20.10 15.78L20.10 15.78Q20.10 16.36 19.78 16.83Q19.47 17.30 18.86 17.56L18.86 17.56Q19.55 17.75 19.93 18.26Q20.31 18.78 20.31 19.51L20.31 19.51Q20.31 20.71 19.53 21.36Q18.76 22 17.33 22L17.33 22ZM15.70 18.15L15.70 20.82L17.35 20.82Q18.04 20.82 18.44 20.47Q18.83 20.13 18.83 19.51L18.83 19.51Q18.83 18.18 17.47 18.15L17.47 18.15L15.70 18.15ZM15.70 14.66L15.70 17.06L17.15 17.06Q17.84 17.06 18.23 16.75Q18.62 16.43 18.62 15.86L18.62 15.86Q18.62 15.23 18.26 14.95Q17.90 14.66 17.14 14.66L17.14 14.66L15.70 14.66ZM24.64 19.16L24.64 19.16L24.64 13.47L26.12 13.47L26.12 19.18Q26.12 20.03 26.55 20.48Q26.98 20.93 27.83 20.93L27.83 20.93Q29.54 20.93 29.54 19.13L29.54 19.13L29.54 13.47L31.02 13.47L31.02 19.17Q31.02 20.53 30.15 21.32Q29.28 22.12 27.83 22.12L27.83 22.12Q26.36 22.12 25.50 21.33Q24.64 20.55 24.64 19.16ZM37.15 22L35.67 22L35.67 13.47L37.15 13.47L37.15 22ZM47.32 22L41.96 22L41.96 13.47L43.44 13.47L43.44 20.82L47.32 20.82L47.32 22ZM53.90 22L51.44 22L51.44 13.47L53.96 13.47Q55.09 13.47 55.97 13.97Q56.84 14.48 57.32 15.40Q57.81 16.33 57.81 17.52L57.81 17.52L57.81 17.95Q57.81 19.16 57.32 20.08Q56.84 21.00 55.94 21.50Q55.05 22 53.90 22L53.90 22ZM52.92 14.66L52.92 20.82L53.89 20.82Q55.06 20.82 55.68 20.09Q56.31 19.36 56.32 17.99L56.32 17.99L56.32 17.52Q56.32 16.13 55.71 15.40Q55.11 14.66 53.96 14.66L53.96 14.66L52.92 14.66ZM67.85 22L62.27 22L62.27 13.47L67.81 13.47L67.81 14.66L63.75 14.66L63.75 17.02L67.26 17.02L67.26 18.19L63.75 18.19L63.75 20.82L67.85 20.82L67.85 22ZM73.53 22L72.04 22L72.04 13.47L75.04 13.47Q76.52 13.47 77.32 14.13Q78.13 14.79 78.13 16.05L78.13 16.05Q78.13 16.90 77.71 17.48Q77.30 18.06 76.56 18.37L76.56 18.37L78.48 21.92L78.48 22L76.89 22L75.18 18.71L73.53 18.71L73.53 22ZM73.53 14.66L73.53 17.52L75.05 17.52Q75.80 17.52 76.22 17.15Q76.64 16.77 76.64 16.11L76.64 16.11Q76.64 15.43 76.25 15.05Q75.86 14.68 75.09 14.66L75.09 14.66L73.53 14.66Z" fill="#FFFFFF"/><path class="svg__text" d="M106.30 22L103.59 22L106.65 17.75L103.72 13.60L106.39 13.60L108.07 16.02L109.73 13.60L112.30 13.60L109.37 17.66L112.49 22L109.76 22L108.02 19.40L106.30 22ZM123.52 22L116.78 22L116.78 13.60L123.37 13.60L123.37 15.44L119.13 15.44L119.13 16.85L122.86 16.85L122.86 18.63L119.13 18.63L119.13 20.17L123.52 20.17L123.52 22ZM130.70 22L128.32 22L128.32 13.60L132.17 13.60Q133.31 13.60 134.15 13.98Q134.99 14.35 135.44 15.06Q135.90 15.76 135.90 16.71L135.90 16.71Q135.90 17.62 135.47 18.30Q135.05 18.98 134.25 19.36L134.25 19.36L136.07 22L133.52 22L132.00 19.77L130.70 19.77L130.70 22ZM130.70 15.47L130.70 17.93L132.02 17.93Q132.75 17.93 133.13 17.61Q133.50 17.29 133.50 16.71L133.50 16.71Q133.50 16.12 133.13 15.79Q132.75 15.47 132.02 15.47L132.02 15.47L130.70 15.47ZM140.26 17.80L140.26 17.80Q140.26 16.55 140.86 15.55Q141.47 14.56 142.53 14.00Q143.59 13.43 144.92 13.43L144.92 13.43Q146.25 13.43 147.32 14.00Q148.38 14.56 148.99 15.55Q149.59 16.55 149.59 17.80L149.59 17.80Q149.59 19.05 148.99 20.04Q148.38 21.04 147.32 21.60Q146.26 22.17 144.92 22.17L144.92 22.17Q143.59 22.17 142.53 21.60Q141.47 21.04 140.86 20.04Q140.26 19.05 140.26 17.80ZM142.66 17.80L142.66 17.80Q142.66 18.51 142.96 19.05Q143.26 19.60 143.78 19.90Q144.29 20.20 144.92 20.20L144.92 20.20Q145.56 20.20 146.08 19.90Q146.59 19.60 146.89 19.05Q147.19 18.51 147.19 17.80L147.19 17.80Q147.19 17.09 146.89 16.54Q146.59 16 146.08 15.70Q145.56 15.40 144.92 15.40L144.92 15.40Q144.29 15.40 143.77 15.70Q143.26 16 142.96 16.54Q142.66 17.09 142.66 17.80ZM153.90 17.80L153.90 17.80Q153.90 16.54 154.49 15.54Q155.09 14.55 156.14 13.99Q157.19 13.43 158.51 13.43L158.51 13.43Q159.67 13.43 160.59 13.84Q161.51 14.25 162.13 15.02L162.13 15.02L160.62 16.39Q159.80 15.40 158.64 15.40L158.64 15.40Q157.95 15.40 157.42 15.70Q156.88 16 156.59 16.54Q156.29 17.09 156.29 17.80L156.29 17.80Q156.29 18.51 156.59 19.05Q156.88 19.60 157.42 19.90Q157.95 20.20 158.64 20.20L158.64 20.20Q159.80 20.20 160.62 19.22L160.62 19.22L162.13 20.58Q161.52 21.35 160.59 21.76Q159.67 22.17 158.51 22.17L158.51 22.17Q157.19 22.17 156.14 21.61Q155.09 21.05 154.49 20.05Q153.90 19.06 153.90 17.80ZM166.23 17.80L166.23 17.80Q166.23 16.55 166.84 15.55Q167.44 14.56 168.51 14.00Q169.57 13.43 170.90 13.43L170.90 13.43Q172.23 13.43 173.29 14.00Q174.36 14.56 174.96 15.55Q175.57 16.55 175.57 17.80L175.57 17.80Q175.57 19.05 174.96 20.04Q174.36 21.04 173.30 21.60Q172.23 22.17 170.90 22.17L170.90 22.17Q169.57 22.17 168.51 21.60Q167.44 21.04 166.84 20.04Q166.23 19.05 166.23 17.80ZM168.63 17.80L168.63 17.80Q168.63 18.51 168.93 19.05Q169.23 19.60 169.75 19.90Q170.27 20.20 170.90 20.20L170.90 20.20Q171.54 20.20 172.05 19.90Q172.57 19.60 172.87 19.05Q173.17 18.51 173.17 17.80L173.17 17.80Q173.17 17.09 172.87 16.54Q172.57 16 172.05 15.70Q171.54 15.40 170.90 15.40L170.90 15.40Q170.26 15.40 169.75 15.70Q169.23 16 168.93 16.54Q168.63 17.09 168.63 17.80ZM184.27 22L180.30 22L180.30 13.60L184.27 13.60Q185.65 13.60 186.72 14.12Q187.79 14.63 188.37 15.58Q188.96 16.53 188.96 17.80L188.96 17.80Q188.96 19.07 188.37 20.02Q187.79 20.97 186.72 21.48Q185.65 22 184.27 22L184.27 22ZM182.68 15.50L182.68 20.10L184.18 20.10Q185.25 20.10 185.91 19.49Q186.56 18.88 186.56 17.80L186.56 17.80Q186.56 16.72 185.91 16.11Q185.25 15.50 184.18 15.50L184.18 15.50L182.68 15.50ZM200.44 22L193.69 22L193.69 13.60L200.28 13.60L200.28 15.44L196.05 15.44L196.05 16.85L199.78 16.85L199.78 18.63L196.05 18.63L196.05 20.17L200.44 20.17L200.44 22ZM211.98 22L205.24 22L205.24 13.60L211.83 13.60L211.83 15.44L207.60 15.44L207.60 16.85L211.33 16.85L211.33 18.63L207.60 18.63L207.60 20.17L211.98 20.17L211.98 22Z" fill="#FFFFFF" x="103.26"/></svg>