<svg xmlns="http://www.w3.org/2000/svg" width="209.41000000000003" height="35" viewBox="0 0 209.41000000000003 35"><rect class="svg__rect" x="0" y="0" width="77.02" height="35" fill="#31C4F3"/><rect class="svg__rect" x="75.02" y="0" width="134.39000000000001" height="35" fill="#389AD5"/><path class="svg__text" d="M13.95 18.19L13.95 18.19L13.95 17.39Q13.95 16.19 14.38 15.27Q14.80 14.35 15.60 13.85Q16.40 13.35 17.45 13.35L17.45 13.35Q18.86 13.35 19.73 14.12Q20.59 14.89 20.73 16.29L20.73 16.29L19.25 16.29Q19.14 15.37 18.71 14.96Q18.28 14.55 17.45 14.55L17.45 14.55Q16.48 14.55 15.97 15.26Q15.45 15.96 15.44 17.33L15.44 17.33L15.44 18.09Q15.44 19.47 15.93 20.20Q16.43 20.92 17.38 20.92L17.38 20.92Q18.25 20.92 18.69 20.53Q19.13 20.14 19.25 19.22L19.25 19.22L20.73 19.22Q20.60 20.59 19.72 21.35Q18.84 22.12 17.38 22.12L17.38 22.12Q16.36 22.12 15.59 21.63Q14.81 21.15 14.39 20.26Q13.97 19.37 13.95 18.19ZM30.39 22L25.04 22L25.04 13.47L26.52 13.47L26.52 20.82L30.39 20.82L30.39 22ZM34.25 18.00L34.25 18.00L34.25 17.52Q34.25 16.28 34.69 15.32Q35.14 14.37 35.94 13.86Q36.75 13.35 37.79 13.35Q38.83 13.35 39.64 13.85Q40.44 14.35 40.88 15.29Q41.32 16.23 41.33 17.48L41.33 17.48L41.33 17.96Q41.33 19.21 40.89 20.16Q40.46 21.10 39.66 21.61Q38.85 22.12 37.80 22.12L37.80 22.12Q36.76 22.12 35.95 21.61Q35.14 21.10 34.70 20.17Q34.26 19.23 34.25 18.00ZM35.73 17.46L35.73 17.96Q35.73 19.36 36.28 20.13Q36.83 20.90 37.80 20.90L37.80 20.90Q38.79 20.90 39.32 20.15Q39.85 19.40 39.85 17.96L39.85 17.96L39.85 17.51Q39.85 16.09 39.31 15.34Q38.77 14.58 37.79 14.58L37.79 14.58Q36.83 14.58 36.29 15.33Q35.74 16.09 35.73 17.46L35.73 17.46ZM45.66 19.16L45.66 19.16L45.66 13.47L47.14 13.47L47.14 19.18Q47.14 20.03 47.57 20.48Q48.00 20.93 48.85 20.93L48.85 20.93Q50.56 20.93 50.56 19.13L50.56 19.13L50.56 13.47L52.03 13.47L52.03 19.17Q52.03 20.53 51.16 21.32Q50.29 22.12 48.85 22.12L48.85 22.12Q47.38 22.12 46.52 21.33Q45.66 20.55 45.66 19.16ZM59.06 22L56.60 22L56.60 13.47L59.12 13.47Q60.25 13.47 61.13 13.97Q62.01 14.48 62.49 15.40Q62.97 16.33 62.97 17.52L62.97 17.52L62.97 17.95Q62.97 19.16 62.48 20.08Q62.00 21.00 61.11 21.50Q60.21 22 59.06 22L59.06 22ZM58.09 14.66L58.09 20.82L59.05 20.82Q60.22 20.82 60.84 20.09Q61.47 19.36 61.48 17.99L61.48 17.99L61.48 17.52Q61.48 16.13 60.88 15.40Q60.27 14.66 59.12 14.66L59.12 14.66L58.09 14.66Z" fill="#FFFFFF"/><path class="svg__text" d="M91.06 22L88.35 22L91.41 17.75L88.48 13.60L91.15 13.60L92.83 16.02L94.49 13.60L97.06 13.60L94.13 17.66L97.25 22L94.52 22L92.78 19.40L91.06 22ZM108.28 22L101.54 22L101.54 13.60L108.13 13.60L108.13 15.44L103.89 15.44L103.89 16.85L107.62 16.85L107.62 18.63L103.89 18.63L103.89 20.17L108.28 20.17L108.28 22ZM115.46 22L113.08 22L113.08 13.60L116.93 13.60Q118.07 13.60 118.91 13.98Q119.75 14.35 120.20 15.06Q120.66 15.76 120.66 16.71L120.66 16.71Q120.66 17.62 120.23 18.30Q119.81 18.98 119.01 19.36L119.01 19.36L120.83 22L118.28 22L116.76 19.77L115.46 19.77L115.46 22ZM115.46 15.47L115.46 17.93L116.78 17.93Q117.51 17.93 117.89 17.61Q118.26 17.29 118.26 16.71L118.26 16.71Q118.26 16.12 117.89 15.79Q117.51 15.47 116.78 15.47L116.78 15.47L115.46 15.47ZM125.02 17.80L125.02 17.80Q125.02 16.55 125.62 15.55Q126.23 14.56 127.29 14.00Q128.35 13.43 129.68 13.43L129.68 13.43Q131.01 13.43 132.08 14.00Q133.14 14.56 133.75 15.55Q134.35 16.55 134.35 17.80L134.35 17.80Q134.35 19.05 133.75 20.04Q133.14 21.04 132.08 21.60Q131.02 22.17 129.68 22.17L129.68 22.17Q128.35 22.17 127.29 21.60Q126.23 21.04 125.62 20.04Q125.02 19.05 125.02 17.80ZM127.42 17.80L127.42 17.80Q127.42 18.51 127.72 19.05Q128.02 19.60 128.54 19.90Q129.05 20.20 129.68 20.20L129.68 20.20Q130.32 20.20 130.84 19.90Q131.35 19.60 131.65 19.05Q131.95 18.51 131.95 17.80L131.95 17.80Q131.95 17.09 131.65 16.54Q131.35 16 130.84 15.70Q130.32 15.40 129.68 15.40L129.68 15.40Q129.05 15.40 128.53 15.70Q128.02 16 127.72 16.54Q127.42 17.09 127.42 17.80ZM138.66 17.80L138.66 17.80Q138.66 16.54 139.25 15.54Q139.85 14.55 140.90 13.99Q141.95 13.43 143.27 13.43L143.27 13.43Q144.43 13.43 145.35 13.84Q146.27 14.25 146.89 15.02L146.89 15.02L145.38 16.39Q144.56 15.40 143.40 15.40L143.40 15.40Q142.71 15.40 142.18 15.70Q141.64 16 141.35 16.54Q141.05 17.09 141.05 17.80L141.05 17.80Q141.05 18.51 141.35 19.05Q141.64 19.60 142.18 19.90Q142.71 20.20 143.40 20.20L143.40 20.20Q144.56 20.20 145.38 19.22L145.38 19.22L146.89 20.58Q146.28 21.35 145.35 21.76Q144.43 22.17 143.27 22.17L143.27 22.17Q141.95 22.17 140.90 21.61Q139.85 21.05 139.25 20.05Q138.66 19.06 138.66 17.80ZM150.99 17.80L150.99 17.80Q150.99 16.55 151.60 15.55Q152.20 14.56 153.27 14.00Q154.33 13.43 155.66 13.43L155.66 13.43Q156.99 13.43 158.05 14.00Q159.12 14.56 159.72 15.55Q160.33 16.55 160.33 17.80L160.33 17.80Q160.33 19.05 159.72 20.04Q159.12 21.04 158.06 21.60Q156.99 22.17 155.66 22.17L155.66 22.17Q154.33 22.17 153.27 21.60Q152.20 21.04 151.60 20.04Q150.99 19.05 150.99 17.80ZM153.39 17.80L153.39 17.80Q153.39 18.51 153.69 19.05Q153.99 19.60 154.51 19.90Q155.03 20.20 155.66 20.20L155.66 20.20Q156.30 20.20 156.81 19.90Q157.33 19.60 157.63 19.05Q157.93 18.51 157.93 17.80L157.93 17.80Q157.93 17.09 157.63 16.54Q157.33 16 156.81 15.70Q156.30 15.40 155.66 15.40L155.66 15.40Q155.02 15.40 154.51 15.70Q153.99 16 153.69 16.54Q153.39 17.09 153.39 17.80ZM169.03 22L165.06 22L165.06 13.60L169.03 13.60Q170.41 13.60 171.48 14.12Q172.55 14.63 173.13 15.58Q173.72 16.53 173.72 17.80L173.72 17.80Q173.72 19.07 173.13 20.02Q172.55 20.97 171.48 21.48Q170.41 22 169.03 22L169.03 22ZM167.44 15.50L167.44 20.10L168.94 20.10Q170.01 20.10 170.67 19.49Q171.32 18.88 171.32 17.80L171.32 17.80Q171.32 16.72 170.67 16.11Q170.01 15.50 168.94 15.50L168.94 15.50L167.44 15.50ZM185.20 22L178.45 22L178.45 13.60L185.04 13.60L185.04 15.44L180.81 15.44L180.81 16.85L184.54 16.85L184.54 18.63L180.81 18.63L180.81 20.17L185.20 20.17L185.20 22ZM196.74 22L190.00 22L190.00 13.60L196.59 13.60L196.59 15.44L192.36 15.44L192.36 16.85L196.09 16.85L196.09 18.63L192.36 18.63L192.36 20.17L196.74 20.17L196.74 22Z" fill="#FFFFFF" x="88.02"/></svg>