<svg xmlns="http://www.w3.org/2000/svg" width="253.57999999999998" height="35" viewBox="0 0 253.57999999999998 35"><rect class="svg__rect" x="0" y="0" width="121.19" height="35" fill="#31C4F3"/><rect class="svg__rect" x="119.19" y="0" width="134.39" height="35" fill="#389AD5"/><path class="svg__text" d="M16.67 22L14.22 22L14.22 13.47L16.74 13.47Q17.87 13.47 18.74 13.97Q19.62 14.48 20.10 15.40Q20.58 16.33 20.58 17.52L20.58 17.52L20.58 17.95Q20.58 19.16 20.10 20.08Q19.61 21.00 18.72 21.50Q17.83 22 16.67 22L16.67 22ZM15.70 14.66L15.70 20.82L16.67 20.82Q17.83 20.82 18.46 20.09Q19.08 19.36 19.09 17.99L19.09 17.99L19.09 17.52Q19.09 16.13 18.49 15.40Q17.89 14.66 16.74 14.66L16.74 14.66L15.70 14.66ZM25.82 22L24.28 22L27.51 13.47L28.84 13.47L32.06 22L30.52 22L29.82 20.01L26.52 20.01L25.82 22ZM28.17 15.28L26.93 18.82L29.40 18.82L28.17 15.28ZM35.59 19.42L35.59 19.42L37.07 19.42Q37.07 20.15 37.55 20.55Q38.03 20.95 38.93 20.95L38.93 20.95Q39.70 20.95 40.09 20.63Q40.48 20.32 40.48 19.80L40.48 19.80Q40.48 19.24 40.08 18.94Q39.69 18.63 38.66 18.32Q37.63 18.01 37.02 17.63L37.02 17.63Q35.85 16.90 35.85 15.72L35.85 15.72Q35.85 14.69 36.69 14.02Q37.53 13.35 38.87 13.35L38.87 13.35Q39.76 13.35 40.46 13.68Q41.16 14.01 41.56 14.61Q41.96 15.22 41.96 15.96L41.96 15.96L40.48 15.96Q40.48 15.29 40.06 14.91Q39.64 14.54 38.86 14.54L38.86 14.54Q38.14 14.54 37.73 14.85Q37.33 15.16 37.33 15.71L37.33 15.71Q37.33 16.18 37.77 16.50Q38.20 16.81 39.20 17.10Q40.19 17.40 40.80 17.78Q41.40 18.16 41.68 18.65Q41.96 19.13 41.96 19.79L41.96 19.79Q41.96 20.86 41.14 21.49Q40.33 22.12 38.93 22.12L38.93 22.12Q38.00 22.12 37.22 21.77Q36.45 21.43 36.02 20.83Q35.59 20.22 35.59 19.42ZM47.73 22L46.25 22L46.25 13.47L47.73 13.47L47.73 17.02L51.55 17.02L51.55 13.47L53.02 13.47L53.02 22L51.55 22L51.55 18.21L47.73 18.21L47.73 22ZM60.88 22L57.76 22L57.76 13.47L60.69 13.47Q62.14 13.47 62.89 14.05Q63.65 14.63 63.65 15.78L63.65 15.78Q63.65 16.36 63.33 16.83Q63.01 17.30 62.40 17.56L62.40 17.56Q63.10 17.75 63.47 18.26Q63.85 18.78 63.85 19.51L63.85 19.51Q63.85 20.71 63.08 21.36Q62.31 22 60.88 22L60.88 22ZM59.25 18.15L59.25 20.82L60.89 20.82Q61.59 20.82 61.98 20.47Q62.38 20.13 62.38 19.51L62.38 19.51Q62.38 18.18 61.02 18.15L61.02 18.15L59.25 18.15ZM59.25 14.66L59.25 17.06L60.70 17.06Q61.39 17.06 61.78 16.75Q62.17 16.43 62.17 15.86L62.17 15.86Q62.17 15.23 61.81 14.95Q61.45 14.66 60.69 14.66L60.69 14.66L59.25 14.66ZM68.05 18.00L68.05 18.00L68.05 17.52Q68.05 16.28 68.50 15.32Q68.94 14.37 69.74 13.86Q70.55 13.35 71.59 13.35Q72.64 13.35 73.44 13.85Q74.25 14.35 74.69 15.29Q75.13 16.23 75.13 17.48L75.13 17.48L75.13 17.96Q75.13 19.21 74.70 20.16Q74.26 21.10 73.46 21.61Q72.65 22.12 71.60 22.12L71.60 22.12Q70.57 22.12 69.76 21.61Q68.94 21.10 68.50 20.17Q68.06 19.23 68.05 18.00ZM69.54 17.46L69.54 17.96Q69.54 19.36 70.08 20.13Q70.63 20.90 71.60 20.90L71.60 20.90Q72.59 20.90 73.12 20.15Q73.65 19.40 73.65 17.96L73.65 17.96L73.65 17.51Q73.65 16.09 73.11 15.34Q72.58 14.58 71.59 14.58L71.59 14.58Q70.63 14.58 70.09 15.33Q69.55 16.09 69.54 17.46L69.54 17.46ZM80.38 22L78.83 22L82.06 13.47L83.39 13.47L86.62 22L85.07 22L84.37 20.01L81.07 20.01L80.38 22ZM82.72 15.28L81.48 18.82L83.96 18.82L82.72 15.28ZM92.05 22L90.57 22L90.57 13.47L93.57 13.47Q95.05 13.47 95.85 14.13Q96.65 14.79 96.65 16.05L96.65 16.05Q96.65 16.90 96.24 17.48Q95.83 18.06 95.09 18.37L95.09 18.37L97.00 21.92L97.00 22L95.42 22L93.71 18.71L92.05 18.71L92.05 22ZM92.05 14.66L92.05 17.52L93.58 17.52Q94.33 17.52 94.75 17.15Q95.17 16.77 95.17 16.11L95.17 16.11Q95.17 15.43 94.78 15.05Q94.39 14.68 93.62 14.66L93.62 14.66L92.05 14.66ZM103.50 22L101.05 22L101.05 13.47L103.57 13.47Q104.70 13.47 105.57 13.97Q106.45 14.48 106.93 15.40Q107.41 16.33 107.41 17.52L107.41 17.52L107.41 17.95Q107.41 19.16 106.93 20.08Q106.44 21.00 105.55 21.50Q104.66 22 103.50 22L103.50 22ZM102.53 14.66L102.53 20.82L103.50 20.82Q104.66 20.82 105.29 20.09Q105.91 19.36 105.92 17.99L105.92 17.99L105.92 17.52Q105.92 16.13 105.32 15.40Q104.72 14.66 103.57 14.66L103.57 14.66L102.53 14.66Z" fill="#FFFFFF"/><path class="svg__text" d="M135.23 22L132.52 22L135.58 17.75L132.65 13.60L135.32 13.60L137.00 16.02L138.66 13.60L141.23 13.60L138.30 17.66L141.42 22L138.69 22L136.95 19.40L135.23 22ZM152.45 22L145.71 22L145.71 13.60L152.30 13.60L152.30 15.44L148.06 15.44L148.06 16.85L151.79 16.85L151.79 18.63L148.06 18.63L148.06 20.17L152.45 20.17L152.45 22ZM159.63 22L157.25 22L157.25 13.60L161.10 13.60Q162.24 13.60 163.08 13.98Q163.92 14.35 164.37 15.06Q164.83 15.76 164.83 16.71L164.83 16.71Q164.83 17.62 164.40 18.30Q163.98 18.98 163.18 19.36L163.18 19.36L165.00 22L162.45 22L160.93 19.77L159.63 19.77L159.63 22ZM159.63 15.47L159.63 17.93L160.95 17.93Q161.68 17.93 162.06 17.61Q162.43 17.29 162.43 16.71L162.43 16.71Q162.43 16.12 162.06 15.79Q161.68 15.47 160.95 15.47L160.95 15.47L159.63 15.47ZM169.19 17.80L169.19 17.80Q169.19 16.55 169.79 15.55Q170.40 14.56 171.46 14.00Q172.52 13.43 173.85 13.43L173.85 13.43Q175.18 13.43 176.25 14.00Q177.31 14.56 177.92 15.55Q178.52 16.55 178.52 17.80L178.52 17.80Q178.52 19.05 177.92 20.04Q177.31 21.04 176.25 21.60Q175.19 22.17 173.85 22.17L173.85 22.17Q172.52 22.17 171.46 21.60Q170.40 21.04 169.79 20.04Q169.19 19.05 169.19 17.80ZM171.59 17.80L171.59 17.80Q171.59 18.51 171.89 19.05Q172.19 19.60 172.71 19.90Q173.22 20.20 173.85 20.20L173.85 20.20Q174.49 20.20 175.01 19.90Q175.52 19.60 175.82 19.05Q176.12 18.51 176.12 17.80L176.12 17.80Q176.12 17.09 175.82 16.54Q175.52 16 175.01 15.70Q174.49 15.40 173.85 15.40L173.85 15.40Q173.22 15.40 172.70 15.70Q172.19 16 171.89 16.54Q171.59 17.09 171.59 17.80ZM182.83 17.80L182.83 17.80Q182.83 16.54 183.42 15.54Q184.02 14.55 185.07 13.99Q186.12 13.43 187.44 13.43L187.44 13.43Q188.60 13.43 189.52 13.84Q190.44 14.25 191.06 15.02L191.06 15.02L189.55 16.39Q188.73 15.40 187.57 15.40L187.57 15.40Q186.88 15.40 186.35 15.70Q185.81 16 185.52 16.54Q185.22 17.09 185.22 17.80L185.22 17.80Q185.22 18.51 185.52 19.05Q185.81 19.60 186.35 19.90Q186.88 20.20 187.57 20.20L187.57 20.20Q188.73 20.20 189.55 19.22L189.55 19.22L191.06 20.58Q190.45 21.35 189.52 21.76Q188.60 22.17 187.44 22.17L187.44 22.17Q186.12 22.17 185.07 21.61Q184.02 21.05 183.42 20.05Q182.83 19.06 182.83 17.80ZM195.16 17.80L195.16 17.80Q195.16 16.55 195.77 15.55Q196.37 14.56 197.44 14.00Q198.50 13.43 199.83 13.43L199.83 13.43Q201.16 13.43 202.22 14.00Q203.29 14.56 203.89 15.55Q204.50 16.55 204.50 17.80L204.50 17.80Q204.50 19.05 203.89 20.04Q203.29 21.04 202.23 21.60Q201.16 22.17 199.83 22.17L199.83 22.17Q198.50 22.17 197.44 21.60Q196.37 21.04 195.77 20.04Q195.16 19.05 195.16 17.80ZM197.56 17.80L197.56 17.80Q197.56 18.51 197.86 19.05Q198.16 19.60 198.68 19.90Q199.20 20.20 199.83 20.20L199.83 20.20Q200.47 20.20 200.98 19.90Q201.50 19.60 201.80 19.05Q202.10 18.51 202.10 17.80L202.10 17.80Q202.10 17.09 201.80 16.54Q201.50 16 200.98 15.70Q200.47 15.40 199.83 15.40L199.83 15.40Q199.19 15.40 198.68 15.70Q198.16 16 197.86 16.54Q197.56 17.09 197.56 17.80ZM213.20 22L209.23 22L209.23 13.60L213.20 13.60Q214.58 13.60 215.65 14.12Q216.72 14.63 217.30 15.58Q217.89 16.53 217.89 17.80L217.89 17.80Q217.89 19.07 217.30 20.02Q216.72 20.97 215.65 21.48Q214.58 22 213.20 22L213.20 22ZM211.61 15.50L211.61 20.10L213.11 20.10Q214.18 20.10 214.84 19.49Q215.49 18.88 215.49 17.80L215.49 17.80Q215.49 16.72 214.84 16.11Q214.18 15.50 213.11 15.50L213.11 15.50L211.61 15.50ZM229.37 22L222.62 22L222.62 13.60L229.21 13.60L229.21 15.44L224.98 15.44L224.98 16.85L228.71 16.85L228.71 18.63L224.98 18.63L224.98 20.17L229.37 20.17L229.37 22ZM240.91 22L234.17 22L234.17 13.60L240.76 13.60L240.76 15.44L236.53 15.44L236.53 16.85L240.26 16.85L240.26 18.63L236.53 18.63L236.53 20.17L240.91 20.17L240.91 22Z" fill="#FFFFFF" x="132.19"/></svg>