<svg xmlns="http://www.w3.org/2000/svg" width="254.32999999999998" height="35" viewBox="0 0 254.32999999999998 35"><rect class="svg__rect" x="0" y="0" width="121.94" height="35" fill="#31C4F3"/><rect class="svg__rect" x="119.94" y="0" width="134.39" height="35" fill="#389AD5"/><path class="svg__text" d="M16.67 22L14.22 22L14.22 13.47L16.74 13.47Q17.87 13.47 18.74 13.97Q19.62 14.48 20.10 15.40Q20.58 16.33 20.58 17.52L20.58 17.52L20.58 17.95Q20.58 19.16 20.10 20.08Q19.61 21.00 18.72 21.50Q17.83 22 16.67 22L16.67 22ZM15.70 14.66L15.70 20.82L16.67 20.82Q17.83 20.82 18.46 20.09Q19.08 19.36 19.09 17.99L19.09 17.99L19.09 17.52Q19.09 16.13 18.49 15.40Q17.89 14.66 16.74 14.66L16.74 14.66L15.70 14.66ZM26.61 22L25.13 22L25.13 13.47L26.61 13.47L26.61 22ZM30.99 19.42L30.99 19.42L32.47 19.42Q32.47 20.15 32.95 20.55Q33.43 20.95 34.33 20.95L34.33 20.95Q35.10 20.95 35.49 20.63Q35.88 20.32 35.88 19.80L35.88 19.80Q35.88 19.24 35.48 18.94Q35.09 18.63 34.06 18.32Q33.03 18.01 32.42 17.63L32.42 17.63Q31.25 16.90 31.25 15.72L31.25 15.72Q31.25 14.69 32.09 14.02Q32.93 13.35 34.27 13.35L34.27 13.35Q35.16 13.35 35.86 13.68Q36.56 14.01 36.96 14.61Q37.36 15.22 37.36 15.96L37.36 15.96L35.88 15.96Q35.88 15.29 35.46 14.91Q35.04 14.54 34.26 14.54L34.26 14.54Q33.54 14.54 33.13 14.85Q32.73 15.16 32.73 15.71L32.73 15.71Q32.73 16.18 33.17 16.50Q33.60 16.81 34.60 17.10Q35.59 17.40 36.20 17.78Q36.80 18.16 37.08 18.65Q37.36 19.13 37.36 19.79L37.36 19.79Q37.36 20.86 36.54 21.49Q35.73 22.12 34.33 22.12L34.33 22.12Q33.40 22.12 32.62 21.77Q31.85 21.43 31.42 20.83Q30.99 20.22 30.99 19.42ZM41.38 18.19L41.38 18.19L41.38 17.39Q41.38 16.19 41.81 15.27Q42.24 14.35 43.04 13.85Q43.84 13.35 44.89 13.35L44.89 13.35Q46.30 13.35 47.16 14.12Q48.02 14.89 48.16 16.29L48.16 16.29L46.68 16.29Q46.58 15.37 46.15 14.96Q45.72 14.55 44.89 14.55L44.89 14.55Q43.92 14.55 43.40 15.26Q42.88 15.96 42.87 17.33L42.87 17.33L42.87 18.09Q42.87 19.47 43.36 20.20Q43.86 20.92 44.81 20.92L44.81 20.92Q45.69 20.92 46.13 20.53Q46.57 20.14 46.68 19.22L46.68 19.22L48.16 19.22Q48.03 20.59 47.15 21.35Q46.27 22.12 44.81 22.12L44.81 22.12Q43.80 22.12 43.02 21.63Q42.24 21.15 41.82 20.26Q41.40 19.37 41.38 18.19ZM52.34 19.16L52.34 19.16L52.34 13.47L53.81 13.47L53.81 19.18Q53.81 20.03 54.25 20.48Q54.68 20.93 55.53 20.93L55.53 20.93Q57.24 20.93 57.24 19.13L57.24 19.13L57.24 13.47L58.71 13.47L58.71 19.17Q58.71 20.53 57.84 21.32Q56.97 22.12 55.53 22.12L55.53 22.12Q54.06 22.12 53.20 21.33Q52.34 20.55 52.34 19.16ZM62.85 19.42L62.85 19.42L64.33 19.42Q64.33 20.15 64.81 20.55Q65.29 20.95 66.19 20.95L66.19 20.95Q66.96 20.95 67.35 20.63Q67.74 20.32 67.74 19.80L67.74 19.80Q67.74 19.24 67.35 18.94Q66.95 18.63 65.92 18.32Q64.89 18.01 64.28 17.63L64.28 17.63Q63.11 16.90 63.11 15.72L63.11 15.72Q63.11 14.69 63.95 14.02Q64.80 13.35 66.14 13.35L66.14 13.35Q67.03 13.35 67.72 13.68Q68.42 14.01 68.82 14.61Q69.22 15.22 69.22 15.96L69.22 15.96L67.74 15.96Q67.74 15.29 67.32 14.91Q66.90 14.54 66.13 14.54L66.13 14.54Q65.40 14.54 65.00 14.85Q64.60 15.16 64.60 15.71L64.60 15.71Q64.60 16.18 65.03 16.50Q65.46 16.81 66.46 17.10Q67.46 17.40 68.06 17.78Q68.66 18.16 68.94 18.65Q69.22 19.13 69.22 19.79L69.22 19.79Q69.22 20.86 68.41 21.49Q67.59 22.12 66.19 22.12L66.19 22.12Q65.26 22.12 64.49 21.77Q63.71 21.43 63.28 20.83Q62.85 20.22 62.85 19.42ZM73.08 19.42L73.08 19.42L74.56 19.42Q74.56 20.15 75.04 20.55Q75.52 20.95 76.42 20.95L76.42 20.95Q77.19 20.95 77.58 20.63Q77.97 20.32 77.97 19.80L77.97 19.80Q77.97 19.24 77.58 18.94Q77.18 18.63 76.15 18.32Q75.12 18.01 74.51 17.63L74.51 17.63Q73.34 16.90 73.34 15.72L73.34 15.72Q73.34 14.69 74.18 14.02Q75.03 13.35 76.37 13.35L76.37 13.35Q77.26 13.35 77.96 13.68Q78.65 14.01 79.05 14.61Q79.45 15.22 79.45 15.96L79.45 15.96L77.97 15.96Q77.97 15.29 77.55 14.91Q77.14 14.54 76.36 14.54L76.36 14.54Q75.63 14.54 75.23 14.85Q74.83 15.16 74.83 15.71L74.83 15.71Q74.83 16.18 75.26 16.50Q75.69 16.81 76.69 17.10Q77.69 17.40 78.29 17.78Q78.89 18.16 79.17 18.65Q79.46 19.13 79.46 19.79L79.46 19.79Q79.46 20.86 78.64 21.49Q77.82 22.12 76.42 22.12L76.42 22.12Q75.49 22.12 74.72 21.77Q73.94 21.43 73.51 20.83Q73.08 20.22 73.08 19.42ZM85.31 22L83.83 22L83.83 13.47L85.31 13.47L85.31 22ZM89.85 18.00L89.85 18.00L89.85 17.52Q89.85 16.28 90.29 15.32Q90.73 14.37 91.54 13.86Q92.35 13.35 93.39 13.35Q94.43 13.35 95.24 13.85Q96.04 14.35 96.48 15.29Q96.92 16.23 96.93 17.48L96.93 17.48L96.93 17.96Q96.93 19.21 96.49 20.16Q96.06 21.10 95.26 21.61Q94.45 22.12 93.40 22.12L93.40 22.12Q92.36 22.12 91.55 21.61Q90.74 21.10 90.30 20.17Q89.86 19.23 89.85 18.00ZM91.33 17.46L91.33 17.96Q91.33 19.36 91.88 20.13Q92.43 20.90 93.40 20.90L93.40 20.90Q94.39 20.90 94.92 20.15Q95.45 19.40 95.45 17.96L95.45 17.96L95.45 17.51Q95.45 16.09 94.91 15.34Q94.37 14.58 93.39 14.58L93.39 14.58Q92.43 14.58 91.89 15.33Q91.34 16.09 91.33 17.46L91.33 17.46ZM102.88 22L101.39 22L101.39 13.47L102.88 13.47L106.69 19.54L106.69 13.47L108.16 13.47L108.16 22L106.68 22L102.88 15.95L102.88 22Z" fill="#FFFFFF"/><path class="svg__text" d="M135.98 22L133.27 22L136.33 17.75L133.40 13.60L136.07 13.60L137.75 16.02L139.41 13.60L141.98 13.60L139.05 17.66L142.17 22L139.44 22L137.70 19.40L135.98 22ZM153.20 22L146.46 22L146.46 13.60L153.05 13.60L153.05 15.44L148.81 15.44L148.81 16.85L152.54 16.85L152.54 18.63L148.81 18.63L148.81 20.17L153.20 20.17L153.20 22ZM160.38 22L158.00 22L158.00 13.60L161.85 13.60Q162.99 13.60 163.83 13.98Q164.67 14.35 165.12 15.06Q165.58 15.76 165.58 16.71L165.58 16.71Q165.58 17.62 165.15 18.30Q164.73 18.98 163.93 19.36L163.93 19.36L165.75 22L163.20 22L161.68 19.77L160.38 19.77L160.38 22ZM160.38 15.47L160.38 17.93L161.70 17.93Q162.43 17.93 162.81 17.61Q163.18 17.29 163.18 16.71L163.18 16.71Q163.18 16.12 162.81 15.79Q162.43 15.47 161.70 15.47L161.70 15.47L160.38 15.47ZM169.94 17.80L169.94 17.80Q169.94 16.55 170.54 15.55Q171.15 14.56 172.21 14.00Q173.27 13.43 174.60 13.43L174.60 13.43Q175.93 13.43 177.00 14.00Q178.06 14.56 178.67 15.55Q179.27 16.55 179.27 17.80L179.27 17.80Q179.27 19.05 178.67 20.04Q178.06 21.04 177.00 21.60Q175.94 22.17 174.60 22.17L174.60 22.17Q173.27 22.17 172.21 21.60Q171.15 21.04 170.54 20.04Q169.94 19.05 169.94 17.80ZM172.34 17.80L172.34 17.80Q172.34 18.51 172.64 19.05Q172.94 19.60 173.46 19.90Q173.97 20.20 174.60 20.20L174.60 20.20Q175.24 20.20 175.76 19.90Q176.27 19.60 176.57 19.05Q176.87 18.51 176.87 17.80L176.87 17.80Q176.87 17.09 176.57 16.54Q176.27 16 175.76 15.70Q175.24 15.40 174.60 15.40L174.60 15.40Q173.97 15.40 173.45 15.70Q172.94 16 172.64 16.54Q172.34 17.09 172.34 17.80ZM183.58 17.80L183.58 17.80Q183.58 16.54 184.17 15.54Q184.77 14.55 185.82 13.99Q186.87 13.43 188.19 13.43L188.19 13.43Q189.35 13.43 190.27 13.84Q191.19 14.25 191.81 15.02L191.81 15.02L190.30 16.39Q189.48 15.40 188.32 15.40L188.32 15.40Q187.63 15.40 187.10 15.70Q186.56 16 186.27 16.54Q185.97 17.09 185.97 17.80L185.97 17.80Q185.97 18.51 186.27 19.05Q186.56 19.60 187.10 19.90Q187.63 20.20 188.32 20.20L188.32 20.20Q189.48 20.20 190.30 19.22L190.30 19.22L191.81 20.58Q191.20 21.35 190.27 21.76Q189.35 22.17 188.19 22.17L188.19 22.17Q186.87 22.17 185.82 21.61Q184.77 21.05 184.17 20.05Q183.58 19.06 183.58 17.80ZM195.91 17.80L195.91 17.80Q195.91 16.55 196.52 15.55Q197.12 14.56 198.19 14.00Q199.25 13.43 200.58 13.43L200.58 13.43Q201.91 13.43 202.97 14.00Q204.04 14.56 204.64 15.55Q205.25 16.55 205.25 17.80L205.25 17.80Q205.25 19.05 204.64 20.04Q204.04 21.04 202.98 21.60Q201.91 22.17 200.58 22.17L200.58 22.17Q199.25 22.17 198.19 21.60Q197.12 21.04 196.52 20.04Q195.91 19.05 195.91 17.80ZM198.31 17.80L198.31 17.80Q198.31 18.51 198.61 19.05Q198.91 19.60 199.43 19.90Q199.95 20.20 200.58 20.20L200.58 20.20Q201.22 20.20 201.73 19.90Q202.25 19.60 202.55 19.05Q202.85 18.51 202.85 17.80L202.85 17.80Q202.85 17.09 202.55 16.54Q202.25 16 201.73 15.70Q201.22 15.40 200.58 15.40L200.58 15.40Q199.94 15.40 199.43 15.70Q198.91 16 198.61 16.54Q198.31 17.09 198.31 17.80ZM213.95 22L209.98 22L209.98 13.60L213.95 13.60Q215.33 13.60 216.40 14.12Q217.47 14.63 218.05 15.58Q218.64 16.53 218.64 17.80L218.64 17.80Q218.64 19.07 218.05 20.02Q217.47 20.97 216.40 21.48Q215.33 22 213.95 22L213.95 22ZM212.36 15.50L212.36 20.10L213.86 20.10Q214.93 20.10 215.59 19.49Q216.24 18.88 216.24 17.80L216.24 17.80Q216.24 16.72 215.59 16.11Q214.93 15.50 213.86 15.50L213.86 15.50L212.36 15.50ZM230.12 22L223.37 22L223.37 13.60L229.96 13.60L229.96 15.44L225.73 15.44L225.73 16.85L229.46 16.85L229.46 18.63L225.73 18.63L225.73 20.17L230.12 20.17L230.12 22ZM241.66 22L234.92 22L234.92 13.60L241.51 13.60L241.51 15.44L237.28 15.44L237.28 16.85L241.01 16.85L241.01 18.63L237.28 18.63L237.28 20.17L241.66 20.17L241.66 22Z" fill="#FFFFFF" x="132.94"/></svg>