<svg xmlns="http://www.w3.org/2000/svg" width="226.76" height="35" viewBox="0 0 226.76 35"><rect class="svg__rect" x="0" y="0" width="94.37" height="35" fill="#31C4F3"/><rect class="svg__rect" x="92.37" y="0" width="134.39" height="35" fill="#389AD5"/><path class="svg__text" d="M16.67 22L14.22 22L14.22 13.47L16.74 13.47Q17.87 13.47 18.74 13.97Q19.62 14.48 20.10 15.40Q20.58 16.33 20.58 17.52L20.58 17.52L20.58 17.95Q20.58 19.16 20.10 20.08Q19.61 21.00 18.72 21.50Q17.83 22 16.67 22L16.67 22ZM15.70 14.66L15.70 20.82L16.67 20.82Q17.83 20.82 18.46 20.09Q19.08 19.36 19.09 17.99L19.09 17.99L19.09 17.52Q19.09 16.13 18.49 15.40Q17.89 14.66 16.74 14.66L16.74 14.66L15.70 14.66ZM26.61 22L25.13 22L25.13 13.47L26.61 13.47L26.61 22ZM30.99 19.42L30.99 19.42L32.47 19.42Q32.47 20.15 32.95 20.55Q33.43 20.95 34.33 20.95L34.33 20.95Q35.10 20.95 35.49 20.63Q35.88 20.32 35.88 19.80L35.88 19.80Q35.88 19.24 35.48 18.94Q35.09 18.63 34.06 18.32Q33.03 18.01 32.42 17.63L32.42 17.63Q31.25 16.90 31.25 15.72L31.25 15.72Q31.25 14.69 32.09 14.02Q32.93 13.35 34.27 13.35L34.27 13.35Q35.16 13.35 35.86 13.68Q36.56 14.01 36.96 14.61Q37.36 15.22 37.36 15.96L37.36 15.96L35.88 15.96Q35.88 15.29 35.46 14.91Q35.04 14.54 34.26 14.54L34.26 14.54Q33.54 14.54 33.13 14.85Q32.73 15.16 32.73 15.71L32.73 15.71Q32.73 16.18 33.17 16.50Q33.60 16.81 34.60 17.10Q35.59 17.40 36.20 17.78Q36.80 18.16 37.08 18.65Q37.36 19.13 37.36 19.79L37.36 19.79Q37.36 20.86 36.54 21.49Q35.73 22.12 34.33 22.12L34.33 22.12Q33.40 22.12 32.62 21.77Q31.85 21.43 31.42 20.83Q30.99 20.22 30.99 19.42ZM41.38 18.19L41.38 18.19L41.38 17.39Q41.38 16.19 41.81 15.27Q42.24 14.35 43.04 13.85Q43.84 13.35 44.89 13.35L44.89 13.35Q46.30 13.35 47.16 14.12Q48.02 14.89 48.16 16.29L48.16 16.29L46.68 16.29Q46.58 15.37 46.15 14.96Q45.72 14.55 44.89 14.55L44.89 14.55Q43.92 14.55 43.40 15.26Q42.88 15.96 42.87 17.33L42.87 17.33L42.87 18.09Q42.87 19.47 43.36 20.20Q43.86 20.92 44.81 20.92L44.81 20.92Q45.69 20.92 46.13 20.53Q46.57 20.14 46.68 19.22L46.68 19.22L48.16 19.22Q48.03 20.59 47.15 21.35Q46.27 22.12 44.81 22.12L44.81 22.12Q43.80 22.12 43.02 21.63Q42.24 21.15 41.82 20.26Q41.40 19.37 41.38 18.19ZM52.20 18.00L52.20 18.00L52.20 17.52Q52.20 16.28 52.65 15.32Q53.09 14.37 53.89 13.86Q54.70 13.35 55.74 13.35Q56.79 13.35 57.59 13.85Q58.40 14.35 58.84 15.29Q59.28 16.23 59.28 17.48L59.28 17.48L59.28 17.96Q59.28 19.21 58.85 20.16Q58.41 21.10 57.61 21.61Q56.80 22.12 55.75 22.12L55.75 22.12Q54.72 22.12 53.91 21.61Q53.09 21.10 52.65 20.17Q52.21 19.23 52.20 18.00ZM53.69 17.46L53.69 17.96Q53.69 19.36 54.23 20.13Q54.78 20.90 55.75 20.90L55.75 20.90Q56.74 20.90 57.27 20.15Q57.80 19.40 57.80 17.96L57.80 17.96L57.80 17.51Q57.80 16.09 57.26 15.34Q56.73 14.58 55.74 14.58L55.74 14.58Q54.78 14.58 54.24 15.33Q53.70 16.09 53.69 17.46L53.69 17.46ZM65.23 22L63.75 22L63.75 13.47L66.75 13.47Q68.22 13.47 69.03 14.13Q69.83 14.79 69.83 16.05L69.83 16.05Q69.83 16.90 69.42 17.48Q69.00 18.06 68.26 18.37L68.26 18.37L70.18 21.92L70.18 22L68.59 22L66.88 18.71L65.23 18.71L65.23 22ZM65.23 14.66L65.23 17.52L66.75 17.52Q67.50 17.52 67.92 17.15Q68.35 16.77 68.35 16.11L68.35 16.11Q68.35 15.43 67.96 15.05Q67.57 14.68 66.79 14.66L66.79 14.66L65.23 14.66ZM76.68 22L74.22 22L74.22 13.47L76.74 13.47Q77.87 13.47 78.75 13.97Q79.63 14.48 80.11 15.40Q80.59 16.33 80.59 17.52L80.59 17.52L80.59 17.95Q80.59 19.16 80.10 20.08Q79.62 21.00 78.73 21.50Q77.83 22 76.68 22L76.68 22ZM75.71 14.66L75.71 20.82L76.67 20.82Q77.84 20.82 78.46 20.09Q79.09 19.36 79.10 17.99L79.10 17.99L79.10 17.52Q79.10 16.13 78.49 15.40Q77.89 14.66 76.74 14.66L76.74 14.66L75.71 14.66Z" fill="#FFFFFF"/><path class="svg__text" d="M108.41 22L105.70 22L108.76 17.75L105.83 13.60L108.50 13.60L110.18 16.02L111.84 13.60L114.41 13.60L111.48 17.66L114.60 22L111.87 22L110.13 19.40L108.41 22ZM125.63 22L118.89 22L118.89 13.60L125.48 13.60L125.48 15.44L121.24 15.44L121.24 16.85L124.97 16.85L124.97 18.63L121.24 18.63L121.24 20.17L125.63 20.17L125.63 22ZM132.81 22L130.43 22L130.43 13.60L134.28 13.60Q135.42 13.60 136.26 13.98Q137.10 14.35 137.55 15.06Q138.01 15.76 138.01 16.71L138.01 16.71Q138.01 17.62 137.58 18.30Q137.16 18.98 136.36 19.36L136.36 19.36L138.18 22L135.63 22L134.11 19.77L132.81 19.77L132.81 22ZM132.81 15.47L132.81 17.93L134.13 17.93Q134.86 17.93 135.24 17.61Q135.61 17.29 135.61 16.71L135.61 16.71Q135.61 16.12 135.24 15.79Q134.86 15.47 134.13 15.47L134.13 15.47L132.81 15.47ZM142.37 17.80L142.37 17.80Q142.37 16.55 142.97 15.55Q143.58 14.56 144.64 14.00Q145.70 13.43 147.03 13.43L147.03 13.43Q148.36 13.43 149.43 14.00Q150.49 14.56 151.10 15.55Q151.70 16.55 151.70 17.80L151.70 17.80Q151.70 19.05 151.10 20.04Q150.49 21.04 149.43 21.60Q148.37 22.17 147.03 22.17L147.03 22.17Q145.70 22.17 144.64 21.60Q143.58 21.04 142.97 20.04Q142.37 19.05 142.37 17.80ZM144.77 17.80L144.77 17.80Q144.77 18.51 145.07 19.05Q145.37 19.60 145.89 19.90Q146.40 20.20 147.03 20.20L147.03 20.20Q147.67 20.20 148.19 19.90Q148.70 19.60 149.00 19.05Q149.30 18.51 149.30 17.80L149.30 17.80Q149.30 17.09 149.00 16.54Q148.70 16 148.19 15.70Q147.67 15.40 147.03 15.40L147.03 15.40Q146.40 15.40 145.88 15.70Q145.37 16 145.07 16.54Q144.77 17.09 144.77 17.80ZM156.01 17.80L156.01 17.80Q156.01 16.54 156.60 15.54Q157.20 14.55 158.25 13.99Q159.30 13.43 160.62 13.43L160.62 13.43Q161.78 13.43 162.70 13.84Q163.62 14.25 164.24 15.02L164.24 15.02L162.73 16.39Q161.91 15.40 160.75 15.40L160.75 15.40Q160.06 15.40 159.53 15.70Q158.99 16 158.70 16.54Q158.40 17.09 158.40 17.80L158.40 17.80Q158.40 18.51 158.70 19.05Q158.99 19.60 159.53 19.90Q160.06 20.20 160.75 20.20L160.75 20.20Q161.91 20.20 162.73 19.22L162.73 19.22L164.24 20.58Q163.63 21.35 162.70 21.76Q161.78 22.17 160.62 22.17L160.62 22.17Q159.30 22.17 158.25 21.61Q157.20 21.05 156.60 20.05Q156.01 19.06 156.01 17.80ZM168.34 17.80L168.34 17.80Q168.34 16.55 168.95 15.55Q169.55 14.56 170.62 14.00Q171.68 13.43 173.01 13.43L173.01 13.43Q174.34 13.43 175.40 14.00Q176.47 14.56 177.07 15.55Q177.68 16.55 177.68 17.80L177.68 17.80Q177.68 19.05 177.07 20.04Q176.47 21.04 175.41 21.60Q174.34 22.17 173.01 22.17L173.01 22.17Q171.68 22.17 170.62 21.60Q169.55 21.04 168.95 20.04Q168.34 19.05 168.34 17.80ZM170.74 17.80L170.74 17.80Q170.74 18.51 171.04 19.05Q171.34 19.60 171.86 19.90Q172.38 20.20 173.01 20.20L173.01 20.20Q173.65 20.20 174.16 19.90Q174.68 19.60 174.98 19.05Q175.28 18.51 175.28 17.80L175.28 17.80Q175.28 17.09 174.98 16.54Q174.68 16 174.16 15.70Q173.65 15.40 173.01 15.40L173.01 15.40Q172.37 15.40 171.86 15.70Q171.34 16 171.04 16.54Q170.74 17.09 170.74 17.80ZM186.38 22L182.41 22L182.41 13.60L186.38 13.60Q187.76 13.60 188.83 14.12Q189.90 14.63 190.48 15.58Q191.07 16.53 191.07 17.80L191.07 17.80Q191.07 19.07 190.48 20.02Q189.90 20.97 188.83 21.48Q187.76 22 186.38 22L186.38 22ZM184.79 15.50L184.79 20.10L186.29 20.10Q187.36 20.10 188.02 19.49Q188.67 18.88 188.67 17.80L188.67 17.80Q188.67 16.72 188.02 16.11Q187.36 15.50 186.29 15.50L186.29 15.50L184.79 15.50ZM202.55 22L195.80 22L195.80 13.60L202.39 13.60L202.39 15.44L198.16 15.44L198.16 16.85L201.89 16.85L201.89 18.63L198.16 18.63L198.16 20.17L202.55 20.17L202.55 22ZM214.09 22L207.35 22L207.35 13.60L213.94 13.60L213.94 15.44L209.71 15.44L209.71 16.85L213.44 16.85L213.44 18.63L209.71 18.63L209.71 20.17L214.09 20.17L214.09 22Z" fill="#FFFFFF" x="105.37"/></svg>