<svg xmlns="http://www.w3.org/2000/svg" width="216.14999999999998" height="35" viewBox="0 0 216.14999999999998 35"><rect class="svg__rect" x="0" y="0" width="83.76" height="35" fill="#31C4F3"/><rect class="svg__rect" x="81.76" y="0" width="134.39" height="35" fill="#389AD5"/><path class="svg__text" d="M13.97 18.13L13.97 18.13L13.97 17.46Q13.97 15.53 14.90 14.44Q15.82 13.35 17.48 13.35L17.48 13.35Q18.90 13.35 19.74 14.05Q20.58 14.76 20.75 16.08L20.75 16.08L19.30 16.08Q19.05 14.54 17.51 14.54L17.51 14.54Q16.51 14.54 16.00 15.26Q15.48 15.98 15.46 17.37L15.46 17.37L15.46 18.02Q15.46 19.40 16.04 20.17Q16.63 20.93 17.66 20.93L17.66 20.93Q18.80 20.93 19.28 20.42L19.28 20.42L19.28 18.75L17.52 18.75L17.52 17.62L20.76 17.62L20.76 20.89Q20.29 21.50 19.47 21.81Q18.65 22.12 17.61 22.12L17.61 22.12Q16.54 22.12 15.71 21.63Q14.89 21.14 14.44 20.24Q13.99 19.33 13.97 18.13ZM26.94 22L25.46 22L25.46 13.47L26.94 13.47L26.94 22ZM33.43 14.66L30.79 14.66L30.79 13.47L37.56 13.47L37.56 14.66L34.90 14.66L34.90 22L33.43 22L33.43 14.66ZM42.80 22L41.32 22L41.32 13.47L42.80 13.47L42.80 17.02L46.61 17.02L46.61 13.47L48.09 13.47L48.09 22L46.61 22L46.61 18.21L42.80 18.21L42.80 22ZM52.70 19.16L52.70 19.16L52.70 13.47L54.17 13.47L54.17 19.18Q54.17 20.03 54.61 20.48Q55.04 20.93 55.88 20.93L55.88 20.93Q57.59 20.93 57.59 19.13L57.59 19.13L57.59 13.47L59.07 13.47L59.07 19.17Q59.07 20.53 58.20 21.32Q57.33 22.12 55.88 22.12L55.88 22.12Q54.42 22.12 53.56 21.33Q52.70 20.55 52.70 19.16ZM66.75 22L63.64 22L63.64 13.47L66.56 13.47Q68.01 13.47 68.77 14.05Q69.52 14.63 69.52 15.78L69.52 15.78Q69.52 16.36 69.21 16.83Q68.89 17.30 68.28 17.56L68.28 17.56Q68.97 17.75 69.35 18.26Q69.73 18.78 69.73 19.51L69.73 19.51Q69.73 20.71 68.96 21.36Q68.19 22 66.75 22L66.75 22ZM65.12 18.15L65.12 20.82L66.77 20.82Q67.47 20.82 67.86 20.47Q68.25 20.13 68.25 19.51L68.25 19.51Q68.25 18.18 66.89 18.15L66.89 18.15L65.12 18.15ZM65.12 14.66L65.12 17.06L66.58 17.06Q67.27 17.06 67.66 16.75Q68.05 16.43 68.05 15.86L68.05 15.86Q68.05 15.23 67.69 14.95Q67.33 14.66 66.56 14.66L66.56 14.66L65.12 14.66Z" fill="#FFFFFF"/><path class="svg__text" d="M97.80 22L95.09 22L98.15 17.75L95.22 13.60L97.89 13.60L99.57 16.02L101.23 13.60L103.80 13.60L100.87 17.66L103.99 22L101.26 22L99.52 19.40L97.80 22ZM115.02 22L108.28 22L108.28 13.60L114.87 13.60L114.87 15.44L110.63 15.44L110.63 16.85L114.36 16.85L114.36 18.63L110.63 18.63L110.63 20.17L115.02 20.17L115.02 22ZM122.20 22L119.82 22L119.82 13.60L123.67 13.60Q124.81 13.60 125.65 13.98Q126.49 14.35 126.94 15.06Q127.40 15.76 127.40 16.71L127.40 16.71Q127.40 17.62 126.97 18.30Q126.55 18.98 125.75 19.36L125.75 19.36L127.57 22L125.02 22L123.50 19.77L122.20 19.77L122.20 22ZM122.20 15.47L122.20 17.93L123.52 17.93Q124.25 17.93 124.63 17.61Q125.00 17.29 125.00 16.71L125.00 16.71Q125.00 16.12 124.63 15.79Q124.25 15.47 123.52 15.47L123.52 15.47L122.20 15.47ZM131.76 17.80L131.76 17.80Q131.76 16.55 132.36 15.55Q132.97 14.56 134.03 14.00Q135.09 13.43 136.42 13.43L136.42 13.43Q137.75 13.43 138.82 14.00Q139.88 14.56 140.49 15.55Q141.09 16.55 141.09 17.80L141.09 17.80Q141.09 19.05 140.49 20.04Q139.88 21.04 138.82 21.60Q137.76 22.17 136.42 22.17L136.42 22.17Q135.09 22.17 134.03 21.60Q132.97 21.04 132.36 20.04Q131.76 19.05 131.76 17.80ZM134.16 17.80L134.16 17.80Q134.16 18.51 134.46 19.05Q134.76 19.60 135.28 19.90Q135.79 20.20 136.42 20.20L136.42 20.20Q137.06 20.20 137.58 19.90Q138.09 19.60 138.39 19.05Q138.69 18.51 138.69 17.80L138.69 17.80Q138.69 17.09 138.39 16.54Q138.09 16 137.58 15.70Q137.06 15.40 136.42 15.40L136.42 15.40Q135.79 15.40 135.27 15.70Q134.76 16 134.46 16.54Q134.16 17.09 134.16 17.80ZM145.40 17.80L145.40 17.80Q145.40 16.54 145.99 15.54Q146.59 14.55 147.64 13.99Q148.69 13.43 150.01 13.43L150.01 13.43Q151.17 13.43 152.09 13.84Q153.01 14.25 153.63 15.02L153.63 15.02L152.12 16.39Q151.30 15.40 150.14 15.40L150.14 15.40Q149.45 15.40 148.92 15.70Q148.38 16 148.09 16.54Q147.79 17.09 147.79 17.80L147.79 17.80Q147.79 18.51 148.09 19.05Q148.38 19.60 148.92 19.90Q149.45 20.20 150.14 20.20L150.14 20.20Q151.30 20.20 152.12 19.22L152.12 19.22L153.63 20.58Q153.02 21.35 152.09 21.76Q151.17 22.17 150.01 22.17L150.01 22.17Q148.69 22.17 147.64 21.61Q146.59 21.05 145.99 20.05Q145.40 19.06 145.40 17.80ZM157.73 17.80L157.73 17.80Q157.73 16.55 158.34 15.55Q158.94 14.56 160.01 14.00Q161.07 13.43 162.40 13.43L162.40 13.43Q163.73 13.43 164.79 14.00Q165.86 14.56 166.46 15.55Q167.07 16.55 167.07 17.80L167.07 17.80Q167.07 19.05 166.46 20.04Q165.86 21.04 164.80 21.60Q163.73 22.17 162.40 22.17L162.40 22.17Q161.07 22.17 160.01 21.60Q158.94 21.04 158.34 20.04Q157.73 19.05 157.73 17.80ZM160.13 17.80L160.13 17.80Q160.13 18.51 160.43 19.05Q160.73 19.60 161.25 19.90Q161.77 20.20 162.40 20.20L162.40 20.20Q163.04 20.20 163.55 19.90Q164.07 19.60 164.37 19.05Q164.67 18.51 164.67 17.80L164.67 17.80Q164.67 17.09 164.37 16.54Q164.07 16 163.55 15.70Q163.04 15.40 162.40 15.40L162.40 15.40Q161.76 15.40 161.25 15.70Q160.73 16 160.43 16.54Q160.13 17.09 160.13 17.80ZM175.77 22L171.80 22L171.80 13.60L175.77 13.60Q177.15 13.60 178.22 14.12Q179.29 14.63 179.87 15.58Q180.46 16.53 180.46 17.80L180.46 17.80Q180.46 19.07 179.87 20.02Q179.29 20.97 178.22 21.48Q177.15 22 175.77 22L175.77 22ZM174.18 15.50L174.18 20.10L175.68 20.10Q176.75 20.10 177.41 19.49Q178.06 18.88 178.06 17.80L178.06 17.80Q178.06 16.72 177.41 16.11Q176.75 15.50 175.68 15.50L175.68 15.50L174.18 15.50ZM191.94 22L185.19 22L185.19 13.60L191.78 13.60L191.78 15.44L187.55 15.44L187.55 16.85L191.28 16.85L191.28 18.63L187.55 18.63L187.55 20.17L191.94 20.17L191.94 22ZM203.48 22L196.74 22L196.74 13.60L203.33 13.60L203.33 15.44L199.10 15.44L199.10 16.85L202.83 16.85L202.83 18.63L199.10 18.63L199.10 20.17L203.48 20.17L203.48 22Z" fill="#FFFFFF" x="94.76"/></svg>