<svg xmlns="http://www.w3.org/2000/svg" width="275.02000000000004" height="35" viewBox="0 0 275.02000000000004 35"><rect class="svg__rect" x="0" y="0" width="142.62" height="35" fill="#31C4F3"/><rect class="svg__rect" x="140.62" y="0" width="134.40000000000003" height="35" fill="#389AD5"/><path class="svg__text" d="M19.57 22L14.22 22L14.22 13.47L15.70 13.47L15.70 20.82L19.57 20.82L19.57 22ZM23.43 18.00L23.43 18.00L23.43 17.52Q23.43 16.28 23.87 15.32Q24.31 14.37 25.12 13.86Q25.92 13.35 26.97 13.35Q28.01 13.35 28.82 13.85Q29.62 14.35 30.06 15.29Q30.50 16.23 30.51 17.48L30.51 17.48L30.51 17.96Q30.51 19.21 30.07 20.16Q29.64 21.10 28.83 21.61Q28.03 22.12 26.98 22.12L26.98 22.12Q25.94 22.12 25.13 21.61Q24.32 21.10 23.88 20.17Q23.43 19.23 23.43 18.00ZM24.91 17.46L24.91 17.96Q24.91 19.36 25.46 20.13Q26.01 20.90 26.98 20.90L26.98 20.90Q27.96 20.90 28.49 20.15Q29.02 19.40 29.02 17.96L29.02 17.96L29.02 17.51Q29.02 16.09 28.49 15.34Q27.95 14.58 26.97 14.58L26.97 14.58Q26.01 14.58 25.46 15.33Q24.92 16.09 24.91 17.46L24.91 17.46ZM34.73 18.13L34.73 18.13L34.73 17.46Q34.73 15.53 35.65 14.44Q36.58 13.35 38.23 13.35L38.23 13.35Q39.66 13.35 40.50 14.05Q41.33 14.76 41.50 16.08L41.50 16.08L40.05 16.08Q39.81 14.54 38.26 14.54L38.26 14.54Q37.27 14.54 36.75 15.26Q36.23 15.98 36.21 17.37L36.21 17.37L36.21 18.02Q36.21 19.40 36.80 20.17Q37.38 20.93 38.42 20.93L38.42 20.93Q39.55 20.93 40.03 20.42L40.03 20.42L40.03 18.75L38.28 18.75L38.28 17.62L41.51 17.62L41.51 20.89Q41.05 21.50 40.23 21.81Q39.41 22.12 38.36 22.12L38.36 22.12Q37.29 22.12 36.47 21.63Q35.64 21.14 35.19 20.24Q34.74 19.33 34.73 18.13ZM47.69 22L46.22 22L46.22 13.47L47.69 13.47L47.69 22ZM53.98 22L52.50 22L52.50 13.47L53.98 13.47L57.80 19.54L57.80 13.47L59.27 13.47L59.27 22L57.79 22L53.98 15.95L53.98 22ZM69.55 19.42L69.55 19.42L71.04 19.42Q71.04 20.15 71.52 20.55Q72.00 20.95 72.89 20.95L72.89 20.95Q73.67 20.95 74.06 20.63Q74.45 20.32 74.45 19.80L74.45 19.80Q74.45 19.24 74.05 18.94Q73.65 18.63 72.62 18.32Q71.59 18.01 70.98 17.63L70.98 17.63Q69.82 16.90 69.82 15.72L69.82 15.72Q69.82 14.69 70.66 14.02Q71.50 13.35 72.84 13.35L72.84 13.35Q73.73 13.35 74.43 13.68Q75.13 14.01 75.52 14.61Q75.92 15.22 75.92 15.96L75.92 15.96L74.45 15.96Q74.45 15.29 74.03 14.91Q73.61 14.54 72.83 14.54L72.83 14.54Q72.10 14.54 71.70 14.85Q71.30 15.16 71.30 15.71L71.30 15.71Q71.30 16.18 71.73 16.50Q72.17 16.81 73.16 17.10Q74.16 17.40 74.76 17.78Q75.37 18.16 75.65 18.65Q75.93 19.13 75.93 19.79L75.93 19.79Q75.93 20.86 75.11 21.49Q74.29 22.12 72.89 22.12L72.89 22.12Q71.97 22.12 71.19 21.77Q70.41 21.43 69.98 20.83Q69.55 20.22 69.55 19.42ZM82.26 18.86L79.39 13.47L81.04 13.47L83.00 17.51L84.96 13.47L86.60 13.47L83.74 18.86L83.74 22L82.26 22L82.26 18.86ZM90.08 19.42L90.08 19.42L91.57 19.42Q91.57 20.15 92.05 20.55Q92.53 20.95 93.42 20.95L93.42 20.95Q94.20 20.95 94.59 20.63Q94.98 20.32 94.98 19.80L94.98 19.80Q94.98 19.24 94.58 18.94Q94.19 18.63 93.15 18.32Q92.12 18.01 91.51 17.63L91.51 17.63Q90.35 16.90 90.35 15.72L90.35 15.72Q90.35 14.69 91.19 14.02Q92.03 13.35 93.37 13.35L93.37 13.35Q94.26 13.35 94.96 13.68Q95.66 14.01 96.06 14.61Q96.45 15.22 96.45 15.96L96.45 15.96L94.98 15.96Q94.98 15.29 94.56 14.91Q94.14 14.54 93.36 14.54L93.36 14.54Q92.63 14.54 92.23 14.85Q91.83 15.16 91.83 15.71L91.83 15.71Q91.83 16.18 92.26 16.50Q92.70 16.81 93.69 17.10Q94.69 17.40 95.29 17.78Q95.90 18.16 96.18 18.65Q96.46 19.13 96.46 19.79L96.46 19.79Q96.46 20.86 95.64 21.49Q94.82 22.12 93.42 22.12L93.42 22.12Q92.50 22.12 91.72 21.77Q90.95 21.43 90.52 20.83Q90.08 20.22 90.08 19.42ZM102.43 14.66L99.79 14.66L99.79 13.47L106.56 13.47L106.56 14.66L103.90 14.66L103.90 22L102.43 22L102.43 14.66ZM115.89 22L110.32 22L110.32 13.47L115.85 13.47L115.85 14.66L111.80 14.66L111.80 17.02L115.30 17.02L115.30 18.19L111.80 18.19L111.80 20.82L115.89 20.82L115.89 22ZM121.57 22L120.09 22L120.09 13.47L122.01 13.47L124.47 20.01L126.93 13.47L128.84 13.47L128.84 22L127.37 22L127.37 19.19L127.51 15.43L124.99 22L123.93 22L121.42 15.43L121.57 19.19L121.57 22Z" fill="#FFFFFF"/><path class="svg__text" d="M156.66 22L153.95 22L157.01 17.75L154.08 13.60L156.75 13.60L158.43 16.02L160.09 13.60L162.66 13.60L159.73 17.66L162.85 22L160.12 22L158.38 19.40L156.66 22ZM173.88 22L167.14 22L167.14 13.60L173.73 13.60L173.73 15.44L169.49 15.44L169.49 16.85L173.22 16.85L173.22 18.63L169.49 18.63L169.49 20.17L173.88 20.17L173.88 22ZM181.06 22L178.68 22L178.68 13.60L182.53 13.60Q183.67 13.60 184.51 13.98Q185.35 14.35 185.80 15.06Q186.26 15.76 186.26 16.71L186.26 16.71Q186.26 17.62 185.83 18.30Q185.41 18.98 184.61 19.36L184.61 19.36L186.43 22L183.88 22L182.36 19.77L181.06 19.77L181.06 22ZM181.06 15.47L181.06 17.93L182.38 17.93Q183.11 17.93 183.49 17.61Q183.86 17.29 183.86 16.71L183.86 16.71Q183.86 16.12 183.49 15.79Q183.11 15.47 182.38 15.47L182.38 15.47L181.06 15.47ZM190.62 17.80L190.62 17.80Q190.62 16.55 191.22 15.55Q191.83 14.56 192.89 14.00Q193.95 13.43 195.28 13.43L195.28 13.43Q196.61 13.43 197.68 14.00Q198.74 14.56 199.35 15.55Q199.95 16.55 199.95 17.80L199.95 17.80Q199.95 19.05 199.35 20.04Q198.74 21.04 197.68 21.60Q196.62 22.17 195.28 22.17L195.28 22.17Q193.95 22.17 192.89 21.60Q191.83 21.04 191.22 20.04Q190.62 19.05 190.62 17.80ZM193.02 17.80L193.02 17.80Q193.02 18.51 193.32 19.05Q193.62 19.60 194.14 19.90Q194.65 20.20 195.28 20.20L195.28 20.20Q195.92 20.20 196.44 19.90Q196.95 19.60 197.25 19.05Q197.55 18.51 197.55 17.80L197.55 17.80Q197.55 17.09 197.25 16.54Q196.95 16 196.44 15.70Q195.92 15.40 195.28 15.40L195.28 15.40Q194.65 15.40 194.13 15.70Q193.62 16 193.32 16.54Q193.02 17.09 193.02 17.80ZM204.26 17.80L204.26 17.80Q204.26 16.54 204.85 15.54Q205.45 14.55 206.50 13.99Q207.55 13.43 208.87 13.43L208.87 13.43Q210.03 13.43 210.95 13.84Q211.87 14.25 212.49 15.02L212.49 15.02L210.98 16.39Q210.16 15.40 209.00 15.40L209.00 15.40Q208.31 15.40 207.78 15.70Q207.24 16 206.95 16.54Q206.65 17.09 206.65 17.80L206.65 17.80Q206.65 18.51 206.95 19.05Q207.24 19.60 207.78 19.90Q208.31 20.20 209.00 20.20L209.00 20.20Q210.16 20.20 210.98 19.22L210.98 19.22L212.49 20.58Q211.88 21.35 210.95 21.76Q210.03 22.17 208.87 22.17L208.87 22.17Q207.55 22.17 206.50 21.61Q205.45 21.05 204.85 20.05Q204.26 19.06 204.26 17.80ZM216.59 17.80L216.59 17.80Q216.59 16.55 217.20 15.55Q217.80 14.56 218.87 14.00Q219.93 13.43 221.26 13.43L221.26 13.43Q222.59 13.43 223.65 14.00Q224.72 14.56 225.32 15.55Q225.93 16.55 225.93 17.80L225.93 17.80Q225.93 19.05 225.32 20.04Q224.72 21.04 223.66 21.60Q222.59 22.17 221.26 22.17L221.26 22.17Q219.93 22.17 218.87 21.60Q217.80 21.04 217.20 20.04Q216.59 19.05 216.59 17.80ZM218.99 17.80L218.99 17.80Q218.99 18.51 219.29 19.05Q219.59 19.60 220.11 19.90Q220.63 20.20 221.26 20.20L221.26 20.20Q221.90 20.20 222.41 19.90Q222.93 19.60 223.23 19.05Q223.53 18.51 223.53 17.80L223.53 17.80Q223.53 17.09 223.23 16.54Q222.93 16 222.41 15.70Q221.90 15.40 221.26 15.40L221.26 15.40Q220.62 15.40 220.11 15.70Q219.59 16 219.29 16.54Q218.99 17.09 218.99 17.80ZM234.63 22L230.66 22L230.66 13.60L234.63 13.60Q236.01 13.60 237.08 14.12Q238.15 14.63 238.73 15.58Q239.32 16.53 239.32 17.80L239.32 17.80Q239.32 19.07 238.73 20.02Q238.15 20.97 237.08 21.48Q236.01 22 234.63 22L234.63 22ZM233.04 15.50L233.04 20.10L234.54 20.10Q235.61 20.10 236.27 19.49Q236.92 18.88 236.92 17.80L236.92 17.80Q236.92 16.72 236.27 16.11Q235.61 15.50 234.54 15.50L234.54 15.50L233.04 15.50ZM250.80 22L244.05 22L244.05 13.60L250.64 13.60L250.64 15.44L246.41 15.44L246.41 16.85L250.14 16.85L250.14 18.63L246.41 18.63L246.41 20.17L250.80 20.17L250.80 22ZM262.35 22L255.60 22L255.60 13.60L262.19 13.60L262.19 15.44L257.96 15.44L257.96 16.85L261.69 16.85L261.69 18.63L257.96 18.63L257.96 20.17L262.35 20.17L262.35 22Z" fill="#FFFFFF" x="153.62"/></svg>