<svg xmlns="http://www.w3.org/2000/svg" width="217.41000000000003" height="35" viewBox="0 0 217.41000000000003 35"><rect class="svg__rect" x="0" y="0" width="85.02" height="35" fill="#31C4F3"/><rect class="svg__rect" x="83.02" y="0" width="134.39000000000001" height="35" fill="#389AD5"/><path class="svg__text" d="M15.70 22L14.22 22L14.22 13.47L15.70 13.47L19.51 19.54L19.51 13.47L20.98 13.47L20.98 22L19.50 22L15.70 15.95L15.70 22ZM31.30 22L25.73 22L25.73 13.47L31.26 13.47L31.26 14.66L27.21 14.66L27.21 17.02L30.71 17.02L30.71 18.19L27.21 18.19L27.21 20.82L31.30 20.82L31.30 22ZM36.59 22L34.87 22L37.51 17.70L34.93 13.47L36.64 13.47L38.43 16.55L40.23 13.47L41.94 13.47L39.36 17.70L42.00 22L40.27 22L38.43 18.87L36.59 22ZM47.76 14.66L45.13 14.66L45.13 13.47L51.89 13.47L51.89 14.66L49.23 14.66L49.23 22L47.76 22L47.76 14.66ZM55.05 19.57L55.05 19.57L56.52 19.57Q56.52 20.25 56.86 20.59Q57.20 20.93 57.83 20.93L57.83 20.93Q58.43 20.93 58.79 20.54Q59.14 20.14 59.14 19.45L59.14 19.45L59.14 13.47L60.62 13.47L60.62 19.45Q60.62 20.68 59.85 21.40Q59.09 22.12 57.83 22.12L57.83 22.12Q56.50 22.12 55.77 21.44Q55.05 20.77 55.05 19.57ZM64.87 19.42L64.87 19.42L66.35 19.42Q66.35 20.15 66.83 20.55Q67.31 20.95 68.21 20.95L68.21 20.95Q68.98 20.95 69.37 20.63Q69.76 20.32 69.76 19.80L69.76 19.80Q69.76 19.24 69.36 18.94Q68.97 18.63 67.94 18.32Q66.90 18.01 66.30 17.63L66.30 17.63Q65.13 16.90 65.13 15.72L65.13 15.72Q65.13 14.69 65.97 14.02Q66.81 13.35 68.15 13.35L68.15 13.35Q69.04 13.35 69.74 13.68Q70.44 14.01 70.84 14.61Q71.23 15.22 71.23 15.96L71.23 15.96L69.76 15.96Q69.76 15.29 69.34 14.91Q68.92 14.54 68.14 14.54L68.14 14.54Q67.41 14.54 67.01 14.85Q66.61 15.16 66.61 15.71L66.61 15.71Q66.61 16.18 67.05 16.50Q67.48 16.81 68.47 17.10Q69.47 17.40 70.07 17.78Q70.68 18.16 70.96 18.65Q71.24 19.13 71.24 19.79L71.24 19.79Q71.24 20.86 70.42 21.49Q69.61 22.12 68.21 22.12L68.21 22.12Q67.28 22.12 66.50 21.77Q65.73 21.43 65.30 20.83Q64.87 20.22 64.87 19.42Z" fill="#FFFFFF"/><path class="svg__text" d="M99.06 22L96.35 22L99.41 17.75L96.48 13.60L99.15 13.60L100.83 16.02L102.49 13.60L105.06 13.60L102.13 17.66L105.25 22L102.52 22L100.78 19.40L99.06 22ZM116.28 22L109.54 22L109.54 13.60L116.13 13.60L116.13 15.44L111.89 15.44L111.89 16.85L115.62 16.85L115.62 18.63L111.89 18.63L111.89 20.17L116.28 20.17L116.28 22ZM123.46 22L121.08 22L121.08 13.60L124.93 13.60Q126.07 13.60 126.91 13.98Q127.75 14.35 128.20 15.06Q128.66 15.76 128.66 16.71L128.66 16.71Q128.66 17.62 128.23 18.30Q127.81 18.98 127.01 19.36L127.01 19.36L128.83 22L126.28 22L124.76 19.77L123.46 19.77L123.46 22ZM123.46 15.47L123.46 17.93L124.78 17.93Q125.51 17.93 125.89 17.61Q126.26 17.29 126.26 16.71L126.26 16.71Q126.26 16.12 125.89 15.79Q125.51 15.47 124.78 15.47L124.78 15.47L123.46 15.47ZM133.02 17.80L133.02 17.80Q133.02 16.55 133.62 15.55Q134.23 14.56 135.29 14.00Q136.35 13.43 137.68 13.43L137.68 13.43Q139.01 13.43 140.08 14.00Q141.14 14.56 141.75 15.55Q142.35 16.55 142.35 17.80L142.35 17.80Q142.35 19.05 141.75 20.04Q141.14 21.04 140.08 21.60Q139.02 22.17 137.68 22.17L137.68 22.17Q136.35 22.17 135.29 21.60Q134.23 21.04 133.62 20.04Q133.02 19.05 133.02 17.80ZM135.42 17.80L135.42 17.80Q135.42 18.51 135.72 19.05Q136.02 19.60 136.54 19.90Q137.05 20.20 137.68 20.20L137.68 20.20Q138.32 20.20 138.84 19.90Q139.35 19.60 139.65 19.05Q139.95 18.51 139.95 17.80L139.95 17.80Q139.95 17.09 139.65 16.54Q139.35 16 138.84 15.70Q138.32 15.40 137.68 15.40L137.68 15.40Q137.05 15.40 136.53 15.70Q136.02 16 135.72 16.54Q135.42 17.09 135.42 17.80ZM146.66 17.80L146.66 17.80Q146.66 16.54 147.25 15.54Q147.85 14.55 148.90 13.99Q149.95 13.43 151.27 13.43L151.27 13.43Q152.43 13.43 153.35 13.84Q154.27 14.25 154.89 15.02L154.89 15.02L153.38 16.39Q152.56 15.40 151.40 15.40L151.40 15.40Q150.71 15.40 150.18 15.70Q149.64 16 149.35 16.54Q149.05 17.09 149.05 17.80L149.05 17.80Q149.05 18.51 149.35 19.05Q149.64 19.60 150.18 19.90Q150.71 20.20 151.40 20.20L151.40 20.20Q152.56 20.20 153.38 19.22L153.38 19.22L154.89 20.58Q154.28 21.35 153.35 21.76Q152.43 22.17 151.27 22.17L151.27 22.17Q149.95 22.17 148.90 21.61Q147.85 21.05 147.25 20.05Q146.66 19.06 146.66 17.80ZM158.99 17.80L158.99 17.80Q158.99 16.55 159.60 15.55Q160.20 14.56 161.27 14.00Q162.33 13.43 163.66 13.43L163.66 13.43Q164.99 13.43 166.05 14.00Q167.12 14.56 167.72 15.55Q168.33 16.55 168.33 17.80L168.33 17.80Q168.33 19.05 167.72 20.04Q167.12 21.04 166.06 21.60Q164.99 22.17 163.66 22.17L163.66 22.17Q162.33 22.17 161.27 21.60Q160.20 21.04 159.60 20.04Q158.99 19.05 158.99 17.80ZM161.39 17.80L161.39 17.80Q161.39 18.51 161.69 19.05Q161.99 19.60 162.51 19.90Q163.03 20.20 163.66 20.20L163.66 20.20Q164.30 20.20 164.81 19.90Q165.33 19.60 165.63 19.05Q165.93 18.51 165.93 17.80L165.93 17.80Q165.93 17.09 165.63 16.54Q165.33 16 164.81 15.70Q164.30 15.40 163.66 15.40L163.66 15.40Q163.02 15.40 162.51 15.70Q161.99 16 161.69 16.54Q161.39 17.09 161.39 17.80ZM177.03 22L173.06 22L173.06 13.60L177.03 13.60Q178.41 13.60 179.48 14.12Q180.55 14.63 181.13 15.58Q181.72 16.53 181.72 17.80L181.72 17.80Q181.72 19.07 181.13 20.02Q180.55 20.97 179.48 21.48Q178.41 22 177.03 22L177.03 22ZM175.44 15.50L175.44 20.10L176.94 20.10Q178.01 20.10 178.67 19.49Q179.32 18.88 179.32 17.80L179.32 17.80Q179.32 16.72 178.67 16.11Q178.01 15.50 176.94 15.50L176.94 15.50L175.44 15.50ZM193.20 22L186.45 22L186.45 13.60L193.04 13.60L193.04 15.44L188.81 15.44L188.81 16.85L192.54 16.85L192.54 18.63L188.81 18.63L188.81 20.17L193.20 20.17L193.20 22ZM204.74 22L198.00 22L198.00 13.60L204.59 13.60L204.59 15.44L200.36 15.44L200.36 16.85L204.09 16.85L204.09 18.63L200.36 18.63L200.36 20.17L204.74 20.17L204.74 22Z" fill="#FFFFFF" x="96.02"/></svg>