<svg xmlns="http://www.w3.org/2000/svg" width="208.73999999999998" height="35" viewBox="0 0 208.73999999999998 35"><rect class="svg__rect" x="0" y="0" width="76.35" height="35" fill="#31C4F3"/><rect class="svg__rect" x="74.35" y="0" width="134.39" height="35" fill="#389AD5"/><path class="svg__text" d="M15.70 22L14.22 22L14.22 13.47L15.70 13.47L19.51 19.54L19.51 13.47L20.98 13.47L20.98 22L19.50 22L15.70 15.95L15.70 22ZM25.46 18.00L25.46 18.00L25.46 17.52Q25.46 16.28 25.90 15.32Q26.34 14.37 27.15 13.86Q27.95 13.35 28.99 13.35Q30.04 13.35 30.84 13.85Q31.65 14.35 32.09 15.29Q32.53 16.23 32.53 17.48L32.53 17.48L32.53 17.96Q32.53 19.21 32.10 20.16Q31.67 21.10 30.86 21.61Q30.06 22.12 29.01 22.12L29.01 22.12Q27.97 22.12 27.16 21.61Q26.35 21.10 25.90 20.17Q25.46 19.23 25.46 18.00ZM26.94 17.46L26.94 17.96Q26.94 19.36 27.49 20.13Q28.03 20.90 29.01 20.90L29.01 20.90Q29.99 20.90 30.52 20.15Q31.05 19.40 31.05 17.96L31.05 17.96L31.05 17.51Q31.05 16.09 30.52 15.34Q29.98 14.58 28.99 14.58L28.99 14.58Q28.03 14.58 27.49 15.33Q26.95 16.09 26.94 17.46L26.94 17.46ZM39.45 22L37.00 22L37.00 13.47L39.52 13.47Q40.65 13.47 41.52 13.97Q42.40 14.48 42.88 15.40Q43.36 16.33 43.36 17.52L43.36 17.52L43.36 17.95Q43.36 19.16 42.88 20.08Q42.39 21.00 41.50 21.50Q40.61 22 39.45 22L39.45 22ZM38.48 14.66L38.48 20.82L39.45 20.82Q40.61 20.82 41.24 20.09Q41.86 19.36 41.87 17.99L41.87 17.99L41.87 17.52Q41.87 16.13 41.27 15.40Q40.67 14.66 39.52 14.66L39.52 14.66L38.48 14.66ZM53.40 22L47.83 22L47.83 13.47L53.36 13.47L53.36 14.66L49.31 14.66L49.31 17.02L52.81 17.02L52.81 18.19L49.31 18.19L49.31 20.82L53.40 20.82L53.40 22ZM57.00 19.57L57.00 19.57L58.47 19.57Q58.47 20.25 58.81 20.59Q59.15 20.93 59.79 20.93L59.79 20.93Q60.38 20.93 60.74 20.54Q61.09 20.14 61.09 19.45L61.09 19.45L61.09 13.47L62.57 13.47L62.57 19.45Q62.57 20.68 61.80 21.40Q61.04 22.12 59.79 22.12L59.79 22.12Q58.45 22.12 57.72 21.44Q57.00 20.77 57.00 19.57Z" fill="#FFFFFF"/><path class="svg__text" d="M90.39 22L87.68 22L90.74 17.75L87.81 13.60L90.48 13.60L92.16 16.02L93.82 13.60L96.39 13.60L93.46 17.66L96.58 22L93.85 22L92.11 19.40L90.39 22ZM107.61 22L100.87 22L100.87 13.60L107.46 13.60L107.46 15.44L103.22 15.44L103.22 16.85L106.95 16.85L106.95 18.63L103.22 18.63L103.22 20.17L107.61 20.17L107.61 22ZM114.79 22L112.41 22L112.41 13.60L116.26 13.60Q117.40 13.60 118.24 13.98Q119.08 14.35 119.53 15.06Q119.99 15.76 119.99 16.71L119.99 16.71Q119.99 17.62 119.56 18.30Q119.14 18.98 118.34 19.36L118.34 19.36L120.16 22L117.61 22L116.09 19.77L114.79 19.77L114.79 22ZM114.79 15.47L114.79 17.93L116.11 17.93Q116.84 17.93 117.22 17.61Q117.59 17.29 117.59 16.71L117.59 16.71Q117.59 16.12 117.22 15.79Q116.84 15.47 116.11 15.47L116.11 15.47L114.79 15.47ZM124.35 17.80L124.35 17.80Q124.35 16.55 124.95 15.55Q125.56 14.56 126.62 14.00Q127.68 13.43 129.01 13.43L129.01 13.43Q130.34 13.43 131.41 14.00Q132.47 14.56 133.08 15.55Q133.68 16.55 133.68 17.80L133.68 17.80Q133.68 19.05 133.08 20.04Q132.47 21.04 131.41 21.60Q130.35 22.17 129.01 22.17L129.01 22.17Q127.68 22.17 126.62 21.60Q125.56 21.04 124.95 20.04Q124.35 19.05 124.35 17.80ZM126.75 17.80L126.75 17.80Q126.75 18.51 127.05 19.05Q127.35 19.60 127.87 19.90Q128.38 20.20 129.01 20.20L129.01 20.20Q129.65 20.20 130.17 19.90Q130.68 19.60 130.98 19.05Q131.28 18.51 131.28 17.80L131.28 17.80Q131.28 17.09 130.98 16.54Q130.68 16 130.17 15.70Q129.65 15.40 129.01 15.40L129.01 15.40Q128.38 15.40 127.86 15.70Q127.35 16 127.05 16.54Q126.75 17.09 126.75 17.80ZM137.99 17.80L137.99 17.80Q137.99 16.54 138.58 15.54Q139.18 14.55 140.23 13.99Q141.28 13.43 142.60 13.43L142.60 13.43Q143.76 13.43 144.68 13.84Q145.60 14.25 146.22 15.02L146.22 15.02L144.71 16.39Q143.89 15.40 142.73 15.40L142.73 15.40Q142.04 15.40 141.51 15.70Q140.97 16 140.68 16.54Q140.38 17.09 140.38 17.80L140.38 17.80Q140.38 18.51 140.68 19.05Q140.97 19.60 141.51 19.90Q142.04 20.20 142.73 20.20L142.73 20.20Q143.89 20.20 144.71 19.22L144.71 19.22L146.22 20.58Q145.61 21.35 144.68 21.76Q143.76 22.17 142.60 22.17L142.60 22.17Q141.28 22.17 140.23 21.61Q139.18 21.05 138.58 20.05Q137.99 19.06 137.99 17.80ZM150.32 17.80L150.32 17.80Q150.32 16.55 150.93 15.55Q151.53 14.56 152.60 14.00Q153.66 13.43 154.99 13.43L154.99 13.43Q156.32 13.43 157.38 14.00Q158.45 14.56 159.05 15.55Q159.66 16.55 159.66 17.80L159.66 17.80Q159.66 19.05 159.05 20.04Q158.45 21.04 157.39 21.60Q156.32 22.17 154.99 22.17L154.99 22.17Q153.66 22.17 152.60 21.60Q151.53 21.04 150.93 20.04Q150.32 19.05 150.32 17.80ZM152.72 17.80L152.72 17.80Q152.72 18.51 153.02 19.05Q153.32 19.60 153.84 19.90Q154.36 20.20 154.99 20.20L154.99 20.20Q155.63 20.20 156.14 19.90Q156.66 19.60 156.96 19.05Q157.26 18.51 157.26 17.80L157.26 17.80Q157.26 17.09 156.96 16.54Q156.66 16 156.14 15.70Q155.63 15.40 154.99 15.40L154.99 15.40Q154.35 15.40 153.84 15.70Q153.32 16 153.02 16.54Q152.72 17.09 152.72 17.80ZM168.36 22L164.39 22L164.39 13.60L168.36 13.60Q169.74 13.60 170.81 14.12Q171.88 14.63 172.46 15.58Q173.05 16.53 173.05 17.80L173.05 17.80Q173.05 19.07 172.46 20.02Q171.88 20.97 170.81 21.48Q169.74 22 168.36 22L168.36 22ZM166.77 15.50L166.77 20.10L168.27 20.10Q169.34 20.10 170.00 19.49Q170.65 18.88 170.65 17.80L170.65 17.80Q170.65 16.72 170.00 16.11Q169.34 15.50 168.27 15.50L168.27 15.50L166.77 15.50ZM184.53 22L177.78 22L177.78 13.60L184.37 13.60L184.37 15.44L180.14 15.44L180.14 16.85L183.87 16.85L183.87 18.63L180.14 18.63L180.14 20.17L184.53 20.17L184.53 22ZM196.07 22L189.33 22L189.33 13.60L195.92 13.60L195.92 15.44L191.69 15.44L191.69 16.85L195.42 16.85L195.42 18.63L191.69 18.63L191.69 20.17L196.07 20.17L196.07 22Z" fill="#FFFFFF" x="87.35"/></svg>