<svg xmlns="http://www.w3.org/2000/svg" width="227.58999999999997" height="35" viewBox="0 0 227.58999999999997 35"><rect class="svg__rect" x="0" y="0" width="95.2" height="35" fill="#31C4F3"/><rect class="svg__rect" x="93.2" y="0" width="134.39" height="35" fill="#389AD5"/><path class="svg__text" d="M15.70 22L14.22 22L14.22 13.47L17.22 13.47Q18.69 13.47 19.50 14.13Q20.30 14.79 20.30 16.05L20.30 16.05Q20.30 16.90 19.89 17.48Q19.47 18.06 18.73 18.37L18.73 18.37L20.65 21.92L20.65 22L19.06 22L17.35 18.71L15.70 18.71L15.70 22ZM15.70 14.66L15.70 17.52L17.22 17.52Q17.97 17.52 18.39 17.15Q18.82 16.77 18.82 16.11L18.82 16.11Q18.82 15.43 18.43 15.05Q18.04 14.68 17.26 14.66L17.26 14.66L15.70 14.66ZM30.27 22L24.69 22L24.69 13.47L30.23 13.47L30.23 14.66L26.18 14.66L26.18 17.02L29.68 17.02L29.68 18.19L26.18 18.19L26.18 20.82L30.27 20.82L30.27 22ZM35.25 22L33.71 22L36.93 13.47L38.26 13.47L41.49 22L39.94 22L39.24 20.01L35.94 20.01L35.25 22ZM37.59 15.28L36.35 18.82L38.83 18.82L37.59 15.28ZM45.17 18.19L45.17 18.19L45.17 17.39Q45.17 16.19 45.60 15.27Q46.03 14.35 46.83 13.85Q47.63 13.35 48.68 13.35L48.68 13.35Q50.09 13.35 50.95 14.12Q51.81 14.89 51.95 16.29L51.95 16.29L50.48 16.29Q50.37 15.37 49.94 14.96Q49.51 14.55 48.68 14.55L48.68 14.55Q47.71 14.55 47.19 15.26Q46.67 15.96 46.66 17.33L46.66 17.33L46.66 18.09Q46.66 19.47 47.16 20.20Q47.65 20.92 48.61 20.92L48.61 20.92Q49.48 20.92 49.92 20.53Q50.36 20.14 50.48 19.22L50.48 19.22L51.95 19.22Q51.82 20.59 50.94 21.35Q50.06 22.12 48.61 22.12L48.61 22.12Q47.59 22.12 46.81 21.63Q46.03 21.15 45.61 20.26Q45.19 19.37 45.17 18.19ZM57.95 14.66L55.31 14.66L55.31 13.47L62.08 13.47L62.08 14.66L59.42 14.66L59.42 22L57.95 22L57.95 14.66ZM65.23 19.57L65.23 19.57L66.71 19.57Q66.71 20.25 67.04 20.59Q67.38 20.93 68.02 20.93L68.02 20.93Q68.62 20.93 68.97 20.54Q69.32 20.14 69.32 19.45L69.32 19.45L69.32 13.47L70.80 13.47L70.80 19.45Q70.80 20.68 70.04 21.40Q69.27 22.12 68.02 22.12L68.02 22.12Q66.68 22.12 65.96 21.44Q65.23 20.77 65.23 19.57ZM75.05 19.42L75.05 19.42L76.53 19.42Q76.53 20.15 77.01 20.55Q77.49 20.95 78.39 20.95L78.39 20.95Q79.16 20.95 79.55 20.63Q79.94 20.32 79.94 19.80L79.94 19.80Q79.94 19.24 79.55 18.94Q79.15 18.63 78.12 18.32Q77.09 18.01 76.48 17.63L76.48 17.63Q75.31 16.90 75.31 15.72L75.31 15.72Q75.31 14.69 76.15 14.02Q76.99 13.35 78.34 13.35L78.34 13.35Q79.23 13.35 79.92 13.68Q80.62 14.01 81.02 14.61Q81.42 15.22 81.42 15.96L81.42 15.96L79.94 15.96Q79.94 15.29 79.52 14.91Q79.10 14.54 78.32 14.54L78.32 14.54Q77.60 14.54 77.20 14.85Q76.80 15.16 76.80 15.71L76.80 15.71Q76.80 16.18 77.23 16.50Q77.66 16.81 78.66 17.10Q79.65 17.40 80.26 17.78Q80.86 18.16 81.14 18.65Q81.42 19.13 81.42 19.79L81.42 19.79Q81.42 20.86 80.61 21.49Q79.79 22.12 78.39 22.12L78.39 22.12Q77.46 22.12 76.69 21.77Q75.91 21.43 75.48 20.83Q75.05 20.22 75.05 19.42Z" fill="#FFFFFF"/><path class="svg__text" d="M109.24 22L106.53 22L109.59 17.75L106.66 13.60L109.33 13.60L111.01 16.02L112.67 13.60L115.24 13.60L112.31 17.66L115.43 22L112.70 22L110.96 19.40L109.24 22ZM126.46 22L119.72 22L119.72 13.60L126.31 13.60L126.31 15.44L122.07 15.44L122.07 16.85L125.80 16.85L125.80 18.63L122.07 18.63L122.07 20.17L126.46 20.17L126.46 22ZM133.64 22L131.26 22L131.26 13.60L135.11 13.60Q136.25 13.60 137.09 13.98Q137.93 14.35 138.38 15.06Q138.84 15.76 138.84 16.71L138.84 16.71Q138.84 17.62 138.41 18.30Q137.99 18.98 137.19 19.36L137.19 19.36L139.01 22L136.46 22L134.94 19.77L133.64 19.77L133.64 22ZM133.64 15.47L133.64 17.93L134.96 17.93Q135.69 17.93 136.07 17.61Q136.44 17.29 136.44 16.71L136.44 16.71Q136.44 16.12 136.07 15.79Q135.69 15.47 134.96 15.47L134.96 15.47L133.64 15.47ZM143.20 17.80L143.20 17.80Q143.20 16.55 143.80 15.55Q144.41 14.56 145.47 14.00Q146.53 13.43 147.86 13.43L147.86 13.43Q149.19 13.43 150.26 14.00Q151.32 14.56 151.93 15.55Q152.53 16.55 152.53 17.80L152.53 17.80Q152.53 19.05 151.93 20.04Q151.32 21.04 150.26 21.60Q149.20 22.17 147.86 22.17L147.86 22.17Q146.53 22.17 145.47 21.60Q144.41 21.04 143.80 20.04Q143.20 19.05 143.20 17.80ZM145.60 17.80L145.60 17.80Q145.60 18.51 145.90 19.05Q146.20 19.60 146.72 19.90Q147.23 20.20 147.86 20.20L147.86 20.20Q148.50 20.20 149.02 19.90Q149.53 19.60 149.83 19.05Q150.13 18.51 150.13 17.80L150.13 17.80Q150.13 17.09 149.83 16.54Q149.53 16 149.02 15.70Q148.50 15.40 147.86 15.40L147.86 15.40Q147.23 15.40 146.71 15.70Q146.20 16 145.90 16.54Q145.60 17.09 145.60 17.80ZM156.84 17.80L156.84 17.80Q156.84 16.54 157.43 15.54Q158.03 14.55 159.08 13.99Q160.13 13.43 161.45 13.43L161.45 13.43Q162.61 13.43 163.53 13.84Q164.45 14.25 165.07 15.02L165.07 15.02L163.56 16.39Q162.74 15.40 161.58 15.40L161.58 15.40Q160.89 15.40 160.36 15.70Q159.82 16 159.53 16.54Q159.23 17.09 159.23 17.80L159.23 17.80Q159.23 18.51 159.53 19.05Q159.82 19.60 160.36 19.90Q160.89 20.20 161.58 20.20L161.58 20.20Q162.74 20.20 163.56 19.22L163.56 19.22L165.07 20.58Q164.46 21.35 163.53 21.76Q162.61 22.17 161.45 22.17L161.45 22.17Q160.13 22.17 159.08 21.61Q158.03 21.05 157.43 20.05Q156.84 19.06 156.84 17.80ZM169.17 17.80L169.17 17.80Q169.17 16.55 169.78 15.55Q170.38 14.56 171.45 14.00Q172.51 13.43 173.84 13.43L173.84 13.43Q175.17 13.43 176.23 14.00Q177.30 14.56 177.90 15.55Q178.51 16.55 178.51 17.80L178.51 17.80Q178.51 19.05 177.90 20.04Q177.30 21.04 176.24 21.60Q175.17 22.17 173.84 22.17L173.84 22.17Q172.51 22.17 171.45 21.60Q170.38 21.04 169.78 20.04Q169.17 19.05 169.17 17.80ZM171.57 17.80L171.57 17.80Q171.57 18.51 171.87 19.05Q172.17 19.60 172.69 19.90Q173.21 20.20 173.84 20.20L173.84 20.20Q174.48 20.20 174.99 19.90Q175.51 19.60 175.81 19.05Q176.11 18.51 176.11 17.80L176.11 17.80Q176.11 17.09 175.81 16.54Q175.51 16 174.99 15.70Q174.48 15.40 173.84 15.40L173.84 15.40Q173.20 15.40 172.69 15.70Q172.17 16 171.87 16.54Q171.57 17.09 171.57 17.80ZM187.21 22L183.24 22L183.24 13.60L187.21 13.60Q188.59 13.60 189.66 14.12Q190.73 14.63 191.31 15.58Q191.90 16.53 191.90 17.80L191.90 17.80Q191.90 19.07 191.31 20.02Q190.73 20.97 189.66 21.48Q188.59 22 187.21 22L187.21 22ZM185.62 15.50L185.62 20.10L187.12 20.10Q188.19 20.10 188.85 19.49Q189.50 18.88 189.50 17.80L189.50 17.80Q189.50 16.72 188.85 16.11Q188.19 15.50 187.12 15.50L187.12 15.50L185.62 15.50ZM203.38 22L196.63 22L196.63 13.60L203.22 13.60L203.22 15.44L198.99 15.44L198.99 16.85L202.72 16.85L202.72 18.63L198.99 18.63L198.99 20.17L203.38 20.17L203.38 22ZM214.92 22L208.18 22L208.18 13.60L214.77 13.60L214.77 15.44L210.54 15.44L210.54 16.85L214.27 16.85L214.27 18.63L210.54 18.63L210.54 20.17L214.92 20.17L214.92 22Z" fill="#FFFFFF" x="106.2"/></svg>