<svg xmlns="http://www.w3.org/2000/svg" width="209.10999999999999" height="35" viewBox="0 0 209.10999999999999 35"><rect class="svg__rect" x="0" y="0" width="76.72" height="35" fill="#31C4F3"/><rect class="svg__rect" x="74.72" y="0" width="134.39" height="35" fill="#389AD5"/><path class="svg__text" d="M13.78 19.42L13.78 19.42L15.27 19.42Q15.27 20.15 15.75 20.55Q16.23 20.95 17.12 20.95L17.12 20.95Q17.90 20.95 18.29 20.63Q18.68 20.32 18.68 19.80L18.68 19.80Q18.68 19.24 18.28 18.94Q17.89 18.63 16.85 18.32Q15.82 18.01 15.21 17.63L15.21 17.63Q14.05 16.90 14.05 15.72L14.05 15.72Q14.05 14.69 14.89 14.02Q15.73 13.35 17.07 13.35L17.07 13.35Q17.96 13.35 18.66 13.68Q19.36 14.01 19.75 14.61Q20.15 15.22 20.15 15.96L20.15 15.96L18.68 15.96Q18.68 15.29 18.26 14.91Q17.84 14.54 17.06 14.54L17.06 14.54Q16.33 14.54 15.93 14.85Q15.53 15.16 15.53 15.71L15.53 15.71Q15.53 16.18 15.96 16.50Q16.40 16.81 17.39 17.10Q18.39 17.40 18.99 17.78Q19.60 18.16 19.88 18.65Q20.16 19.13 20.16 19.79L20.16 19.79Q20.16 20.86 19.34 21.49Q18.52 22.12 17.12 22.12L17.12 22.12Q16.20 22.12 15.42 21.77Q14.64 21.43 14.21 20.83Q13.78 20.22 13.78 19.42ZM29.80 22L24.45 22L24.45 13.47L25.93 13.47L25.93 20.82L29.80 20.82L29.80 22ZM34.71 22L33.17 22L36.39 13.47L37.72 13.47L40.95 22L39.40 22L38.70 20.01L35.40 20.01L34.71 22ZM37.05 15.28L35.81 18.82L38.29 18.82L37.05 15.28ZM44.63 18.19L44.63 18.19L44.63 17.39Q44.63 16.19 45.06 15.27Q45.49 14.35 46.29 13.85Q47.09 13.35 48.14 13.35L48.14 13.35Q49.55 13.35 50.41 14.12Q51.27 14.89 51.41 16.29L51.41 16.29L49.94 16.29Q49.83 15.37 49.40 14.96Q48.97 14.55 48.14 14.55L48.14 14.55Q47.17 14.55 46.65 15.26Q46.13 15.96 46.12 17.33L46.12 17.33L46.12 18.09Q46.12 19.47 46.62 20.20Q47.11 20.92 48.07 20.92L48.07 20.92Q48.94 20.92 49.38 20.53Q49.82 20.14 49.94 19.22L49.94 19.22L51.41 19.22Q51.28 20.59 50.40 21.35Q49.53 22.12 48.07 22.12L48.07 22.12Q47.05 22.12 46.27 21.63Q45.49 21.15 45.07 20.26Q44.65 19.37 44.63 18.19ZM57.21 22L55.73 22L55.73 13.47L57.21 13.47L57.21 17.47L58.03 16.46L60.52 13.47L62.32 13.47L59.15 17.25L62.50 22L60.74 22L58.17 18.31L57.21 19.34L57.21 22Z" fill="#FFFFFF"/><path class="svg__text" d="M90.76 22L88.05 22L91.11 17.75L88.18 13.60L90.85 13.60L92.53 16.02L94.19 13.60L96.76 13.60L93.83 17.66L96.95 22L94.22 22L92.48 19.40L90.76 22ZM107.98 22L101.24 22L101.24 13.60L107.83 13.60L107.83 15.44L103.59 15.44L103.59 16.85L107.32 16.85L107.32 18.63L103.59 18.63L103.59 20.17L107.98 20.17L107.98 22ZM115.16 22L112.78 22L112.78 13.60L116.63 13.60Q117.77 13.60 118.61 13.98Q119.45 14.35 119.90 15.06Q120.36 15.76 120.36 16.71L120.36 16.71Q120.36 17.62 119.93 18.30Q119.51 18.98 118.71 19.36L118.71 19.36L120.53 22L117.98 22L116.46 19.77L115.16 19.77L115.16 22ZM115.16 15.47L115.16 17.93L116.48 17.93Q117.21 17.93 117.59 17.61Q117.96 17.29 117.96 16.71L117.96 16.71Q117.96 16.12 117.59 15.79Q117.21 15.47 116.48 15.47L116.48 15.47L115.16 15.47ZM124.72 17.80L124.72 17.80Q124.72 16.55 125.32 15.55Q125.93 14.56 126.99 14.00Q128.05 13.43 129.38 13.43L129.38 13.43Q130.71 13.43 131.78 14.00Q132.84 14.56 133.45 15.55Q134.05 16.55 134.05 17.80L134.05 17.80Q134.05 19.05 133.45 20.04Q132.84 21.04 131.78 21.60Q130.72 22.17 129.38 22.17L129.38 22.17Q128.05 22.17 126.99 21.60Q125.93 21.04 125.32 20.04Q124.72 19.05 124.72 17.80ZM127.12 17.80L127.12 17.80Q127.12 18.51 127.42 19.05Q127.72 19.60 128.24 19.90Q128.75 20.20 129.38 20.20L129.38 20.20Q130.02 20.20 130.54 19.90Q131.05 19.60 131.35 19.05Q131.65 18.51 131.65 17.80L131.65 17.80Q131.65 17.09 131.35 16.54Q131.05 16 130.54 15.70Q130.02 15.40 129.38 15.40L129.38 15.40Q128.75 15.40 128.23 15.70Q127.72 16 127.42 16.54Q127.12 17.09 127.12 17.80ZM138.36 17.80L138.36 17.80Q138.36 16.54 138.95 15.54Q139.55 14.55 140.60 13.99Q141.65 13.43 142.97 13.43L142.97 13.43Q144.13 13.43 145.05 13.84Q145.97 14.25 146.59 15.02L146.59 15.02L145.08 16.39Q144.26 15.40 143.10 15.40L143.10 15.40Q142.41 15.40 141.88 15.70Q141.34 16 141.05 16.54Q140.75 17.09 140.75 17.80L140.75 17.80Q140.75 18.51 141.05 19.05Q141.34 19.60 141.88 19.90Q142.41 20.20 143.10 20.20L143.10 20.20Q144.26 20.20 145.08 19.22L145.08 19.22L146.59 20.58Q145.98 21.35 145.05 21.76Q144.13 22.17 142.97 22.17L142.97 22.17Q141.65 22.17 140.60 21.61Q139.55 21.05 138.95 20.05Q138.36 19.06 138.36 17.80ZM150.69 17.80L150.69 17.80Q150.69 16.55 151.30 15.55Q151.90 14.56 152.97 14.00Q154.03 13.43 155.36 13.43L155.36 13.43Q156.69 13.43 157.75 14.00Q158.82 14.56 159.42 15.55Q160.03 16.55 160.03 17.80L160.03 17.80Q160.03 19.05 159.42 20.04Q158.82 21.04 157.76 21.60Q156.69 22.17 155.36 22.17L155.36 22.17Q154.03 22.17 152.97 21.60Q151.90 21.04 151.30 20.04Q150.69 19.05 150.69 17.80ZM153.09 17.80L153.09 17.80Q153.09 18.51 153.39 19.05Q153.69 19.60 154.21 19.90Q154.73 20.20 155.36 20.20L155.36 20.20Q156.00 20.20 156.51 19.90Q157.03 19.60 157.33 19.05Q157.63 18.51 157.63 17.80L157.63 17.80Q157.63 17.09 157.33 16.54Q157.03 16 156.51 15.70Q156.00 15.40 155.36 15.40L155.36 15.40Q154.72 15.40 154.21 15.70Q153.69 16 153.39 16.54Q153.09 17.09 153.09 17.80ZM168.73 22L164.76 22L164.76 13.60L168.73 13.60Q170.11 13.60 171.18 14.12Q172.25 14.63 172.83 15.58Q173.42 16.53 173.42 17.80L173.42 17.80Q173.42 19.07 172.83 20.02Q172.25 20.97 171.18 21.48Q170.11 22 168.73 22L168.73 22ZM167.14 15.50L167.14 20.10L168.64 20.10Q169.71 20.10 170.37 19.49Q171.02 18.88 171.02 17.80L171.02 17.80Q171.02 16.72 170.37 16.11Q169.71 15.50 168.64 15.50L168.64 15.50L167.14 15.50ZM184.90 22L178.15 22L178.15 13.60L184.74 13.60L184.74 15.44L180.51 15.44L180.51 16.85L184.24 16.85L184.24 18.63L180.51 18.63L180.51 20.17L184.90 20.17L184.90 22ZM196.44 22L189.70 22L189.70 13.60L196.29 13.60L196.29 15.44L192.06 15.44L192.06 16.85L195.79 16.85L195.79 18.63L192.06 18.63L192.06 20.17L196.44 20.17L196.44 22Z" fill="#FFFFFF" x="87.72"/></svg>