<svg xmlns="http://www.w3.org/2000/svg" width="256.02" height="35" viewBox="0 0 256.02 35"><rect class="svg__rect" x="0" y="0" width="123.63" height="35" fill="#31C4F3"/><rect class="svg__rect" x="121.63" y="0" width="134.39" height="35" fill="#389AD5"/><path class="svg__text" d="M16.25 14.66L13.61 14.66L13.61 13.47L20.38 13.47L20.38 14.66L17.72 14.66L17.72 22L16.25 22L16.25 14.66ZM26.18 18.86L23.31 13.47L24.96 13.47L26.92 17.51L28.88 13.47L30.52 13.47L27.66 18.86L27.66 22L26.18 22L26.18 18.86ZM35.92 22L34.44 22L34.44 13.47L37.70 13.47Q39.13 13.47 39.97 14.21Q40.81 14.96 40.81 16.18L40.81 16.18Q40.81 17.44 39.99 18.13Q39.17 18.83 37.68 18.83L37.68 18.83L35.92 18.83L35.92 22ZM35.92 14.66L35.92 17.64L37.70 17.64Q38.49 17.64 38.91 17.27Q39.32 16.90 39.32 16.19L39.32 16.19Q39.32 15.50 38.90 15.09Q38.48 14.68 37.74 14.66L37.74 14.66L35.92 14.66ZM50.67 22L45.10 22L45.10 13.47L50.63 13.47L50.63 14.66L46.58 14.66L46.58 17.02L50.08 17.02L50.08 18.19L46.58 18.19L46.58 20.82L50.67 20.82L50.67 22ZM54.44 19.42L54.44 19.42L55.92 19.42Q55.92 20.15 56.40 20.55Q56.88 20.95 57.78 20.95L57.78 20.95Q58.55 20.95 58.94 20.63Q59.33 20.32 59.33 19.80L59.33 19.80Q59.33 19.24 58.93 18.94Q58.54 18.63 57.51 18.32Q56.48 18.01 55.87 17.63L55.87 17.63Q54.70 16.90 54.70 15.72L54.70 15.72Q54.70 14.69 55.54 14.02Q56.38 13.35 57.72 13.35L57.72 13.35Q58.61 13.35 59.31 13.68Q60.01 14.01 60.41 14.61Q60.81 15.22 60.81 15.96L60.81 15.96L59.33 15.96Q59.33 15.29 58.91 14.91Q58.49 14.54 57.71 14.54L57.71 14.54Q56.98 14.54 56.58 14.85Q56.18 15.16 56.18 15.71L56.18 15.71Q56.18 16.18 56.62 16.50Q57.05 16.81 58.05 17.10Q59.04 17.40 59.64 17.78Q60.25 18.16 60.53 18.65Q60.81 19.13 60.81 19.79L60.81 19.79Q60.81 20.86 59.99 21.49Q59.18 22.12 57.78 22.12L57.78 22.12Q56.85 22.12 56.07 21.77Q55.30 21.43 54.87 20.83Q54.44 20.22 54.44 19.42ZM64.83 18.19L64.83 18.19L64.83 17.39Q64.83 16.19 65.26 15.27Q65.69 14.35 66.49 13.85Q67.29 13.35 68.33 13.35L68.33 13.35Q69.75 13.35 70.61 14.12Q71.47 14.89 71.61 16.29L71.61 16.29L70.13 16.29Q70.03 15.37 69.60 14.96Q69.17 14.55 68.33 14.55L68.33 14.55Q67.37 14.55 66.85 15.26Q66.33 15.96 66.32 17.33L66.32 17.33L66.32 18.09Q66.32 19.47 66.81 20.20Q67.31 20.92 68.26 20.92L68.26 20.92Q69.14 20.92 69.58 20.53Q70.02 20.14 70.13 19.22L70.13 19.22L71.61 19.22Q71.48 20.59 70.60 21.35Q69.72 22.12 68.26 22.12L68.26 22.12Q67.24 22.12 66.47 21.63Q65.69 21.15 65.27 20.26Q64.85 19.37 64.83 18.19ZM77.40 22L75.92 22L75.92 13.47L78.92 13.47Q80.40 13.47 81.20 14.13Q82.00 14.79 82.00 16.05L82.00 16.05Q82.00 16.90 81.59 17.48Q81.18 18.06 80.44 18.37L80.44 18.37L82.36 21.92L82.36 22L80.77 22L79.06 18.71L77.40 18.71L77.40 22ZM77.40 14.66L77.40 17.52L78.93 17.52Q79.68 17.52 80.10 17.15Q80.52 16.77 80.52 16.11L80.52 16.11Q80.52 15.43 80.13 15.05Q79.74 14.68 78.97 14.66L78.97 14.66L77.40 14.66ZM87.96 22L86.49 22L86.49 13.47L87.96 13.47L87.96 22ZM94.26 22L92.77 22L92.77 13.47L96.04 13.47Q97.47 13.47 98.31 14.21Q99.15 14.96 99.15 16.18L99.15 16.18Q99.15 17.44 98.33 18.13Q97.50 18.83 96.02 18.83L96.02 18.83L94.26 18.83L94.26 22ZM94.26 14.66L94.26 17.64L96.04 17.64Q96.83 17.64 97.24 17.27Q97.66 16.90 97.66 16.19L97.66 16.19Q97.66 15.50 97.24 15.09Q96.82 14.68 96.08 14.66L96.08 14.66L94.26 14.66ZM105.11 14.66L102.48 14.66L102.48 13.47L109.24 13.47L109.24 14.66L106.58 14.66L106.58 22L105.11 22L105.11 14.66Z" fill="#FFFFFF"/><path class="svg__text" d="M137.67 22L134.96 22L138.02 17.75L135.09 13.60L137.76 13.60L139.44 16.02L141.10 13.60L143.67 13.60L140.74 17.66L143.86 22L141.13 22L139.39 19.40L137.67 22ZM154.89 22L148.15 22L148.15 13.60L154.74 13.60L154.74 15.44L150.50 15.44L150.50 16.85L154.23 16.85L154.23 18.63L150.50 18.63L150.50 20.17L154.89 20.17L154.89 22ZM162.07 22L159.69 22L159.69 13.60L163.54 13.60Q164.68 13.60 165.52 13.98Q166.36 14.35 166.81 15.06Q167.27 15.76 167.27 16.71L167.27 16.71Q167.27 17.62 166.84 18.30Q166.42 18.98 165.62 19.36L165.62 19.36L167.44 22L164.89 22L163.37 19.77L162.07 19.77L162.07 22ZM162.07 15.47L162.07 17.93L163.39 17.93Q164.12 17.93 164.50 17.61Q164.87 17.29 164.87 16.71L164.87 16.71Q164.87 16.12 164.50 15.79Q164.12 15.47 163.39 15.47L163.39 15.47L162.07 15.47ZM171.63 17.80L171.63 17.80Q171.63 16.55 172.23 15.55Q172.84 14.56 173.90 14.00Q174.96 13.43 176.29 13.43L176.29 13.43Q177.62 13.43 178.69 14.00Q179.75 14.56 180.36 15.55Q180.96 16.55 180.96 17.80L180.96 17.80Q180.96 19.05 180.36 20.04Q179.75 21.04 178.69 21.60Q177.63 22.17 176.29 22.17L176.29 22.17Q174.96 22.17 173.90 21.60Q172.84 21.04 172.23 20.04Q171.63 19.05 171.63 17.80ZM174.03 17.80L174.03 17.80Q174.03 18.51 174.33 19.05Q174.63 19.60 175.15 19.90Q175.66 20.20 176.29 20.20L176.29 20.20Q176.93 20.20 177.45 19.90Q177.96 19.60 178.26 19.05Q178.56 18.51 178.56 17.80L178.56 17.80Q178.56 17.09 178.26 16.54Q177.96 16 177.45 15.70Q176.93 15.40 176.29 15.40L176.29 15.40Q175.66 15.40 175.14 15.70Q174.63 16 174.33 16.54Q174.03 17.09 174.03 17.80ZM185.27 17.80L185.27 17.80Q185.27 16.54 185.86 15.54Q186.46 14.55 187.51 13.99Q188.56 13.43 189.88 13.43L189.88 13.43Q191.04 13.43 191.96 13.84Q192.88 14.25 193.50 15.02L193.50 15.02L191.99 16.39Q191.17 15.40 190.01 15.40L190.01 15.40Q189.32 15.40 188.79 15.70Q188.25 16 187.96 16.54Q187.66 17.09 187.66 17.80L187.66 17.80Q187.66 18.51 187.96 19.05Q188.25 19.60 188.79 19.90Q189.32 20.20 190.01 20.20L190.01 20.20Q191.17 20.20 191.99 19.22L191.99 19.22L193.50 20.58Q192.89 21.35 191.96 21.76Q191.04 22.17 189.88 22.17L189.88 22.17Q188.56 22.17 187.51 21.61Q186.46 21.05 185.86 20.05Q185.27 19.06 185.27 17.80ZM197.60 17.80L197.60 17.80Q197.60 16.55 198.21 15.55Q198.81 14.56 199.88 14.00Q200.94 13.43 202.27 13.43L202.27 13.43Q203.60 13.43 204.66 14.00Q205.73 14.56 206.33 15.55Q206.94 16.55 206.94 17.80L206.94 17.80Q206.94 19.05 206.33 20.04Q205.73 21.04 204.67 21.60Q203.60 22.17 202.27 22.17L202.27 22.17Q200.94 22.17 199.88 21.60Q198.81 21.04 198.21 20.04Q197.60 19.05 197.60 17.80ZM200.00 17.80L200.00 17.80Q200.00 18.51 200.30 19.05Q200.60 19.60 201.12 19.90Q201.64 20.20 202.27 20.20L202.27 20.20Q202.91 20.20 203.42 19.90Q203.94 19.60 204.24 19.05Q204.54 18.51 204.54 17.80L204.54 17.80Q204.54 17.09 204.24 16.54Q203.94 16 203.42 15.70Q202.91 15.40 202.27 15.40L202.27 15.40Q201.63 15.40 201.12 15.70Q200.60 16 200.30 16.54Q200.00 17.09 200.00 17.80ZM215.64 22L211.67 22L211.67 13.60L215.64 13.60Q217.02 13.60 218.09 14.12Q219.16 14.63 219.74 15.58Q220.33 16.53 220.33 17.80L220.33 17.80Q220.33 19.07 219.74 20.02Q219.16 20.97 218.09 21.48Q217.02 22 215.64 22L215.64 22ZM214.05 15.50L214.05 20.10L215.55 20.10Q216.62 20.10 217.28 19.49Q217.93 18.88 217.93 17.80L217.93 17.80Q217.93 16.72 217.28 16.11Q216.62 15.50 215.55 15.50L215.55 15.50L214.05 15.50ZM231.81 22L225.06 22L225.06 13.60L231.65 13.60L231.65 15.44L227.42 15.44L227.42 16.85L231.15 16.85L231.15 18.63L227.42 18.63L227.42 20.17L231.81 20.17L231.81 22ZM243.35 22L236.61 22L236.61 13.60L243.20 13.60L243.20 15.44L238.97 15.44L238.97 16.85L242.70 16.85L242.70 18.63L238.97 18.63L238.97 20.17L243.35 20.17L243.35 22Z" fill="#FFFFFF" x="134.63"/></svg>