<svg xmlns="http://www.w3.org/2000/svg" width="248.42" height="35" viewBox="0 0 248.42 35"><rect class="svg__rect" x="0" y="0" width="116.03" height="35" fill="#31C4F3"/><rect class="svg__rect" x="114.03" y="0" width="134.39" height="35" fill="#389AD5"/><path class="svg__text" d="M14.08 19.16L14.08 19.16L14.08 13.47L15.56 13.47L15.56 19.18Q15.56 20.03 15.99 20.48Q16.43 20.93 17.27 20.93L17.27 20.93Q18.98 20.93 18.98 19.13L18.98 19.13L18.98 13.47L20.46 13.47L20.46 19.17Q20.46 20.53 19.59 21.32Q18.72 22.12 17.27 22.12L17.27 22.12Q15.81 22.12 14.94 21.33Q14.08 20.55 14.08 19.16ZM26.59 22L25.12 22L25.12 13.47L26.59 13.47L26.59 22ZM42.73 22L37.38 22L37.38 13.47L38.86 13.47L38.86 20.82L42.73 20.82L42.73 22ZM48.42 22L46.95 22L46.95 13.47L48.42 13.47L48.42 22ZM56.35 22L53.23 22L53.23 13.47L56.16 13.47Q57.61 13.47 58.36 14.05Q59.12 14.63 59.12 15.78L59.12 15.78Q59.12 16.36 58.80 16.83Q58.48 17.30 57.88 17.56L57.88 17.56Q58.57 17.75 58.94 18.26Q59.32 18.78 59.32 19.51L59.32 19.51Q59.32 20.71 58.55 21.36Q57.78 22 56.35 22L56.35 22ZM54.72 18.15L54.72 20.82L56.36 20.82Q57.06 20.82 57.45 20.47Q57.85 20.13 57.85 19.51L57.85 19.51Q57.85 18.18 56.49 18.15L56.49 18.15L54.72 18.15ZM54.72 14.66L54.72 17.06L56.17 17.06Q56.86 17.06 57.25 16.75Q57.64 16.43 57.64 15.86L57.64 15.86Q57.64 15.23 57.28 14.95Q56.92 14.66 56.16 14.66L56.16 14.66L54.72 14.66ZM65.28 22L63.79 22L63.79 13.47L66.79 13.47Q68.27 13.47 69.07 14.13Q69.88 14.79 69.88 16.05L69.88 16.05Q69.88 16.90 69.46 17.48Q69.05 18.06 68.31 18.37L68.31 18.37L70.23 21.92L70.23 22L68.64 22L66.93 18.71L65.28 18.71L65.28 22ZM65.28 14.66L65.28 17.52L66.80 17.52Q67.55 17.52 67.97 17.15Q68.39 16.77 68.39 16.11L68.39 16.11Q68.39 15.43 68.00 15.05Q67.61 14.68 66.84 14.66L66.84 14.66L65.28 14.66ZM75.05 22L73.51 22L76.73 13.47L78.06 13.47L81.29 22L79.74 22L79.05 20.01L75.74 20.01L75.05 22ZM77.39 15.28L76.16 18.82L78.63 18.82L77.39 15.28ZM86.73 22L85.24 22L85.24 13.47L88.24 13.47Q89.72 13.47 90.52 14.13Q91.33 14.79 91.33 16.05L91.33 16.05Q91.33 16.90 90.91 17.48Q90.50 18.06 89.76 18.37L89.76 18.37L91.68 21.92L91.68 22L90.09 22L88.38 18.71L86.73 18.71L86.73 22ZM86.73 14.66L86.73 17.52L88.25 17.52Q89.00 17.52 89.42 17.15Q89.84 16.77 89.84 16.11L89.84 16.11Q89.84 15.43 89.45 15.05Q89.06 14.68 88.29 14.66L88.29 14.66L86.73 14.66ZM97.76 18.86L94.89 13.47L96.54 13.47L98.50 17.51L100.47 13.47L102.11 13.47L99.25 18.86L99.25 22L97.76 22L97.76 18.86Z" fill="#FFFFFF"/><path class="svg__text" d="M130.07 22L127.36 22L130.42 17.75L127.49 13.60L130.16 13.60L131.84 16.02L133.50 13.60L136.07 13.60L133.14 17.66L136.26 22L133.53 22L131.79 19.40L130.07 22ZM147.29 22L140.55 22L140.55 13.60L147.14 13.60L147.14 15.44L142.90 15.44L142.90 16.85L146.63 16.85L146.63 18.63L142.90 18.63L142.90 20.17L147.29 20.17L147.29 22ZM154.47 22L152.09 22L152.09 13.60L155.94 13.60Q157.08 13.60 157.92 13.98Q158.76 14.35 159.21 15.06Q159.67 15.76 159.67 16.71L159.67 16.71Q159.67 17.62 159.24 18.30Q158.82 18.98 158.02 19.36L158.02 19.36L159.84 22L157.29 22L155.77 19.77L154.47 19.77L154.47 22ZM154.47 15.47L154.47 17.93L155.79 17.93Q156.52 17.93 156.90 17.61Q157.27 17.29 157.27 16.71L157.27 16.71Q157.27 16.12 156.90 15.79Q156.52 15.47 155.79 15.47L155.79 15.47L154.47 15.47ZM164.03 17.80L164.03 17.80Q164.03 16.55 164.63 15.55Q165.24 14.56 166.30 14.00Q167.36 13.43 168.69 13.43L168.69 13.43Q170.02 13.43 171.09 14.00Q172.15 14.56 172.76 15.55Q173.36 16.55 173.36 17.80L173.36 17.80Q173.36 19.05 172.76 20.04Q172.15 21.04 171.09 21.60Q170.03 22.17 168.69 22.17L168.69 22.17Q167.36 22.17 166.30 21.60Q165.24 21.04 164.63 20.04Q164.03 19.05 164.03 17.80ZM166.43 17.80L166.43 17.80Q166.43 18.51 166.73 19.05Q167.03 19.60 167.55 19.90Q168.06 20.20 168.69 20.20L168.69 20.20Q169.33 20.20 169.85 19.90Q170.36 19.60 170.66 19.05Q170.96 18.51 170.96 17.80L170.96 17.80Q170.96 17.09 170.66 16.54Q170.36 16 169.85 15.70Q169.33 15.40 168.69 15.40L168.69 15.40Q168.06 15.40 167.54 15.70Q167.03 16 166.73 16.54Q166.43 17.09 166.43 17.80ZM177.67 17.80L177.67 17.80Q177.67 16.54 178.26 15.54Q178.86 14.55 179.91 13.99Q180.96 13.43 182.28 13.43L182.28 13.43Q183.44 13.43 184.36 13.84Q185.28 14.25 185.90 15.02L185.90 15.02L184.39 16.39Q183.57 15.40 182.41 15.40L182.41 15.40Q181.72 15.40 181.19 15.70Q180.65 16 180.36 16.54Q180.06 17.09 180.06 17.80L180.06 17.80Q180.06 18.51 180.36 19.05Q180.65 19.60 181.19 19.90Q181.72 20.20 182.41 20.20L182.41 20.20Q183.57 20.20 184.39 19.22L184.39 19.22L185.90 20.58Q185.29 21.35 184.36 21.76Q183.44 22.17 182.28 22.17L182.28 22.17Q180.96 22.17 179.91 21.61Q178.86 21.05 178.26 20.05Q177.67 19.06 177.67 17.80ZM190.00 17.80L190.00 17.80Q190.00 16.55 190.61 15.55Q191.21 14.56 192.28 14.00Q193.34 13.43 194.67 13.43L194.67 13.43Q196.00 13.43 197.06 14.00Q198.13 14.56 198.73 15.55Q199.34 16.55 199.34 17.80L199.34 17.80Q199.34 19.05 198.73 20.04Q198.13 21.04 197.07 21.60Q196.00 22.17 194.67 22.17L194.67 22.17Q193.34 22.17 192.28 21.60Q191.21 21.04 190.61 20.04Q190.00 19.05 190.00 17.80ZM192.40 17.80L192.40 17.80Q192.40 18.51 192.70 19.05Q193.00 19.60 193.52 19.90Q194.04 20.20 194.67 20.20L194.67 20.20Q195.31 20.20 195.82 19.90Q196.34 19.60 196.64 19.05Q196.94 18.51 196.94 17.80L196.94 17.80Q196.94 17.09 196.64 16.54Q196.34 16 195.82 15.70Q195.31 15.40 194.67 15.40L194.67 15.40Q194.03 15.40 193.52 15.70Q193.00 16 192.70 16.54Q192.40 17.09 192.40 17.80ZM208.04 22L204.07 22L204.07 13.60L208.04 13.60Q209.42 13.60 210.49 14.12Q211.56 14.63 212.14 15.58Q212.73 16.53 212.73 17.80L212.73 17.80Q212.73 19.07 212.14 20.02Q211.56 20.97 210.49 21.48Q209.42 22 208.04 22L208.04 22ZM206.45 15.50L206.45 20.10L207.95 20.10Q209.02 20.10 209.68 19.49Q210.33 18.88 210.33 17.80L210.33 17.80Q210.33 16.72 209.68 16.11Q209.02 15.50 207.95 15.50L207.95 15.50L206.45 15.50ZM224.21 22L217.46 22L217.46 13.60L224.05 13.60L224.05 15.44L219.82 15.44L219.82 16.85L223.55 16.85L223.55 18.63L219.82 18.63L219.82 20.17L224.21 20.17L224.21 22ZM235.75 22L229.01 22L229.01 13.60L235.60 13.60L235.60 15.44L231.37 15.44L231.37 16.85L235.10 16.85L235.10 18.63L231.37 18.63L231.37 20.17L235.75 20.17L235.75 22Z" fill="#FFFFFF" x="127.03"/></svg>