<svg xmlns="http://www.w3.org/2000/svg" width="208.07999999999998" height="35" viewBox="0 0 208.07999999999998 35"><rect class="svg__rect" x="0" y="0" width="75.68" height="35" fill="#31C4F3"/><rect class="svg__rect" x="73.68" y="0" width="134.39999999999998" height="35" fill="#389AD5"/><path class="svg__text" d="M16.51 22L13.46 13.47L15.08 13.47L17.22 20.14L19.39 13.47L21.02 13.47L17.95 22L16.51 22ZM24.83 19.16L24.83 19.16L24.83 13.47L26.31 13.47L26.31 19.18Q26.31 20.03 26.74 20.48Q27.18 20.93 28.02 20.93L28.02 20.93Q29.73 20.93 29.73 19.13L29.73 19.13L29.73 13.47L31.21 13.47L31.21 19.17Q31.21 20.53 30.34 21.32Q29.47 22.12 28.02 22.12L28.02 22.12Q26.56 22.12 25.70 21.33Q24.83 20.55 24.83 19.16ZM41.36 22L35.78 22L35.78 13.47L41.32 13.47L41.32 14.66L37.26 14.66L37.26 17.02L40.77 17.02L40.77 18.19L37.26 18.19L37.26 20.82L41.36 20.82L41.36 22ZM44.95 19.57L44.95 19.57L46.43 19.57Q46.43 20.25 46.76 20.59Q47.10 20.93 47.74 20.93L47.74 20.93Q48.34 20.93 48.69 20.54Q49.05 20.14 49.05 19.45L49.05 19.45L49.05 13.47L50.52 13.47L50.52 19.45Q50.52 20.68 49.76 21.40Q48.99 22.12 47.74 22.12L47.74 22.12Q46.40 22.12 45.68 21.44Q44.95 20.77 44.95 19.57ZM54.77 19.42L54.77 19.42L56.25 19.42Q56.25 20.15 56.73 20.55Q57.21 20.95 58.11 20.95L58.11 20.95Q58.88 20.95 59.27 20.63Q59.66 20.32 59.66 19.80L59.66 19.80Q59.66 19.24 59.27 18.94Q58.87 18.63 57.84 18.32Q56.81 18.01 56.20 17.63L56.20 17.63Q55.03 16.90 55.03 15.72L55.03 15.72Q55.03 14.69 55.87 14.02Q56.72 13.35 58.06 13.35L58.06 13.35Q58.95 13.35 59.64 13.68Q60.34 14.01 60.74 14.61Q61.14 15.22 61.14 15.96L61.14 15.96L59.66 15.96Q59.66 15.29 59.24 14.91Q58.82 14.54 58.05 14.54L58.05 14.54Q57.32 14.54 56.92 14.85Q56.52 15.16 56.52 15.71L56.52 15.71Q56.52 16.18 56.95 16.50Q57.38 16.81 58.38 17.10Q59.38 17.40 59.98 17.78Q60.58 18.16 60.86 18.65Q61.14 19.13 61.14 19.79L61.14 19.79Q61.14 20.86 60.33 21.49Q59.51 22.12 58.11 22.12L58.11 22.12Q57.18 22.12 56.41 21.77Q55.63 21.43 55.20 20.83Q54.77 20.22 54.77 19.42Z" fill="#FFFFFF"/><path class="svg__text" d="M89.72 22L87.01 22L90.07 17.75L87.14 13.60L89.81 13.60L91.49 16.02L93.15 13.60L95.72 13.60L92.79 17.66L95.91 22L93.18 22L91.44 19.40L89.72 22ZM106.94 22L100.20 22L100.20 13.60L106.79 13.60L106.79 15.44L102.55 15.44L102.55 16.85L106.28 16.85L106.28 18.63L102.55 18.63L102.55 20.17L106.94 20.17L106.94 22ZM114.12 22L111.74 22L111.74 13.60L115.59 13.60Q116.73 13.60 117.57 13.98Q118.41 14.35 118.86 15.06Q119.32 15.76 119.32 16.71L119.32 16.71Q119.32 17.62 118.89 18.30Q118.47 18.98 117.67 19.36L117.67 19.36L119.49 22L116.94 22L115.42 19.77L114.12 19.77L114.12 22ZM114.12 15.47L114.12 17.93L115.44 17.93Q116.17 17.93 116.55 17.61Q116.92 17.29 116.92 16.71L116.92 16.71Q116.92 16.12 116.55 15.79Q116.17 15.47 115.44 15.47L115.44 15.47L114.12 15.47ZM123.68 17.80L123.68 17.80Q123.68 16.55 124.28 15.55Q124.89 14.56 125.95 14.00Q127.01 13.43 128.34 13.43L128.34 13.43Q129.67 13.43 130.74 14.00Q131.80 14.56 132.41 15.55Q133.01 16.55 133.01 17.80L133.01 17.80Q133.01 19.05 132.41 20.04Q131.80 21.04 130.74 21.60Q129.68 22.17 128.34 22.17L128.34 22.17Q127.01 22.17 125.95 21.60Q124.89 21.04 124.28 20.04Q123.68 19.05 123.68 17.80ZM126.08 17.80L126.08 17.80Q126.08 18.51 126.38 19.05Q126.68 19.60 127.20 19.90Q127.71 20.20 128.34 20.20L128.34 20.20Q128.98 20.20 129.50 19.90Q130.01 19.60 130.31 19.05Q130.61 18.51 130.61 17.80L130.61 17.80Q130.61 17.09 130.31 16.54Q130.01 16 129.50 15.70Q128.98 15.40 128.34 15.40L128.34 15.40Q127.71 15.40 127.19 15.70Q126.68 16 126.38 16.54Q126.08 17.09 126.08 17.80ZM137.32 17.80L137.32 17.80Q137.32 16.54 137.91 15.54Q138.51 14.55 139.56 13.99Q140.61 13.43 141.93 13.43L141.93 13.43Q143.09 13.43 144.01 13.84Q144.93 14.25 145.55 15.02L145.55 15.02L144.04 16.39Q143.22 15.40 142.06 15.40L142.06 15.40Q141.37 15.40 140.84 15.70Q140.30 16 140.01 16.54Q139.71 17.09 139.71 17.80L139.71 17.80Q139.71 18.51 140.01 19.05Q140.30 19.60 140.84 19.90Q141.37 20.20 142.06 20.20L142.06 20.20Q143.22 20.20 144.04 19.22L144.04 19.22L145.55 20.58Q144.94 21.35 144.01 21.76Q143.09 22.17 141.93 22.17L141.93 22.17Q140.61 22.17 139.56 21.61Q138.51 21.05 137.91 20.05Q137.32 19.06 137.32 17.80ZM149.66 17.80L149.66 17.80Q149.66 16.55 150.26 15.55Q150.86 14.56 151.93 14.00Q152.99 13.43 154.32 13.43L154.32 13.43Q155.65 13.43 156.71 14.00Q157.78 14.56 158.38 15.55Q158.99 16.55 158.99 17.80L158.99 17.80Q158.99 19.05 158.38 20.04Q157.78 21.04 156.72 21.60Q155.66 22.17 154.32 22.17L154.32 22.17Q152.99 22.17 151.93 21.60Q150.86 21.04 150.26 20.04Q149.66 19.05 149.66 17.80ZM152.05 17.80L152.05 17.80Q152.05 18.51 152.35 19.05Q152.66 19.60 153.17 19.90Q153.69 20.20 154.32 20.20L154.32 20.20Q154.96 20.20 155.47 19.90Q155.99 19.60 156.29 19.05Q156.59 18.51 156.59 17.80L156.59 17.80Q156.59 17.09 156.29 16.54Q155.99 16 155.47 15.70Q154.96 15.40 154.32 15.40L154.32 15.40Q153.68 15.40 153.17 15.70Q152.66 16 152.35 16.54Q152.05 17.09 152.05 17.80ZM167.69 22L163.72 22L163.72 13.60L167.69 13.60Q169.07 13.60 170.14 14.12Q171.21 14.63 171.79 15.58Q172.38 16.53 172.38 17.80L172.38 17.80Q172.38 19.07 171.79 20.02Q171.21 20.97 170.14 21.48Q169.07 22 167.69 22L167.69 22ZM166.10 15.50L166.10 20.10L167.60 20.10Q168.67 20.10 169.33 19.49Q169.98 18.88 169.98 17.80L169.98 17.80Q169.98 16.72 169.33 16.11Q168.67 15.50 167.60 15.50L167.60 15.50L166.10 15.50ZM183.86 22L177.11 22L177.11 13.60L183.70 13.60L183.70 15.44L179.47 15.44L179.47 16.85L183.20 16.85L183.20 18.63L179.47 18.63L179.47 20.17L183.86 20.17L183.86 22ZM195.41 22L188.66 22L188.66 13.60L195.25 13.60L195.25 15.44L191.02 15.44L191.02 16.85L194.75 16.85L194.75 18.63L191.02 18.63L191.02 20.17L195.41 20.17L195.41 22Z" fill="#FFFFFF" x="86.68"/></svg>