<svg xmlns="http://www.w3.org/2000/svg" width="226.60999999999999" height="35" viewBox="0 0 226.60999999999999 35"><rect class="svg__rect" x="0" y="0" width="94.22" height="35" fill="#31C4F3"/><rect class="svg__rect" x="92.22" y="0" width="134.39" height="35" fill="#389AD5"/><path class="svg__text" d="M15.60 22L13.63 13.47L15.10 13.47L16.43 19.88L18.06 13.47L19.30 13.47L20.91 19.89L22.22 13.47L23.69 13.47L21.72 22L20.31 22L18.68 15.77L17.02 22L15.60 22ZM33.34 22L27.76 22L27.76 13.47L33.30 13.47L33.30 14.66L29.25 14.66L29.25 17.02L32.75 17.02L32.75 18.19L29.25 18.19L29.25 20.82L33.34 20.82L33.34 22ZM40.65 22L37.54 22L37.54 13.47L40.46 13.47Q41.91 13.47 42.66 14.05Q43.42 14.63 43.42 15.78L43.42 15.78Q43.42 16.36 43.10 16.83Q42.79 17.30 42.18 17.56L42.18 17.56Q42.87 17.75 43.25 18.26Q43.63 18.78 43.63 19.51L43.63 19.51Q43.63 20.71 42.85 21.36Q42.08 22 40.65 22L40.65 22ZM39.02 18.15L39.02 20.82L40.67 20.82Q41.36 20.82 41.76 20.47Q42.15 20.13 42.15 19.51L42.15 19.51Q42.15 18.18 40.79 18.15L40.79 18.15L39.02 18.15ZM39.02 14.66L39.02 17.06L40.47 17.06Q41.16 17.06 41.55 16.75Q41.94 16.43 41.94 15.86L41.94 15.86Q41.94 15.23 41.58 14.95Q41.22 14.66 40.46 14.66L40.46 14.66L39.02 14.66ZM47.66 19.42L47.66 19.42L49.14 19.42Q49.14 20.15 49.63 20.55Q50.11 20.95 51.00 20.95L51.00 20.95Q51.78 20.95 52.17 20.63Q52.56 20.32 52.56 19.80L52.56 19.80Q52.56 19.24 52.16 18.94Q51.76 18.63 50.73 18.32Q49.70 18.01 49.09 17.63L49.09 17.63Q47.93 16.90 47.93 15.72L47.93 15.72Q47.93 14.69 48.77 14.02Q49.61 13.35 50.95 13.35L50.95 13.35Q51.84 13.35 52.54 13.68Q53.23 14.01 53.63 14.61Q54.03 15.22 54.03 15.96L54.03 15.96L52.56 15.96Q52.56 15.29 52.14 14.91Q51.72 14.54 50.94 14.54L50.94 14.54Q50.21 14.54 49.81 14.85Q49.41 15.16 49.41 15.71L49.41 15.71Q49.41 16.18 49.84 16.50Q50.28 16.81 51.27 17.10Q52.27 17.40 52.87 17.78Q53.48 18.16 53.76 18.65Q54.04 19.13 54.04 19.79L54.04 19.79Q54.04 20.86 53.22 21.49Q52.40 22.12 51.00 22.12L51.00 22.12Q50.08 22.12 49.30 21.77Q48.52 21.43 48.09 20.83Q47.66 20.22 47.66 19.42ZM59.89 22L58.41 22L58.41 13.47L59.89 13.47L59.89 22ZM66.38 14.66L63.75 14.66L63.75 13.47L70.51 13.47L70.51 14.66L67.85 14.66L67.85 22L66.38 22L66.38 14.66ZM79.85 22L74.27 22L74.27 13.47L79.81 13.47L79.81 14.66L75.75 14.66L75.75 17.02L79.26 17.02L79.26 18.19L75.75 18.19L75.75 20.82L79.85 20.82L79.85 22Z" fill="#FFFFFF"/><path class="svg__text" d="M108.26 22L105.55 22L108.61 17.75L105.68 13.60L108.35 13.60L110.03 16.02L111.69 13.60L114.26 13.60L111.33 17.66L114.45 22L111.72 22L109.98 19.40L108.26 22ZM125.48 22L118.74 22L118.74 13.60L125.33 13.60L125.33 15.44L121.09 15.44L121.09 16.85L124.82 16.85L124.82 18.63L121.09 18.63L121.09 20.17L125.48 20.17L125.48 22ZM132.66 22L130.28 22L130.28 13.60L134.13 13.60Q135.27 13.60 136.11 13.98Q136.95 14.35 137.40 15.06Q137.86 15.76 137.86 16.71L137.86 16.71Q137.86 17.62 137.43 18.30Q137.01 18.98 136.21 19.36L136.21 19.36L138.03 22L135.48 22L133.96 19.77L132.66 19.77L132.66 22ZM132.66 15.47L132.66 17.93L133.98 17.93Q134.71 17.93 135.09 17.61Q135.46 17.29 135.46 16.71L135.46 16.71Q135.46 16.12 135.09 15.79Q134.71 15.47 133.98 15.47L133.98 15.47L132.66 15.47ZM142.22 17.80L142.22 17.80Q142.22 16.55 142.82 15.55Q143.43 14.56 144.49 14.00Q145.55 13.43 146.88 13.43L146.88 13.43Q148.21 13.43 149.28 14.00Q150.34 14.56 150.95 15.55Q151.55 16.55 151.55 17.80L151.55 17.80Q151.55 19.05 150.95 20.04Q150.34 21.04 149.28 21.60Q148.22 22.17 146.88 22.17L146.88 22.17Q145.55 22.17 144.49 21.60Q143.43 21.04 142.82 20.04Q142.22 19.05 142.22 17.80ZM144.62 17.80L144.62 17.80Q144.62 18.51 144.92 19.05Q145.22 19.60 145.74 19.90Q146.25 20.20 146.88 20.20L146.88 20.20Q147.52 20.20 148.04 19.90Q148.55 19.60 148.85 19.05Q149.15 18.51 149.15 17.80L149.15 17.80Q149.15 17.09 148.85 16.54Q148.55 16 148.04 15.70Q147.52 15.40 146.88 15.40L146.88 15.40Q146.25 15.40 145.73 15.70Q145.22 16 144.92 16.54Q144.62 17.09 144.62 17.80ZM155.86 17.80L155.86 17.80Q155.86 16.54 156.45 15.54Q157.05 14.55 158.10 13.99Q159.15 13.43 160.47 13.43L160.47 13.43Q161.63 13.43 162.55 13.84Q163.47 14.25 164.09 15.02L164.09 15.02L162.58 16.39Q161.76 15.40 160.60 15.40L160.60 15.40Q159.91 15.40 159.38 15.70Q158.84 16 158.55 16.54Q158.25 17.09 158.25 17.80L158.25 17.80Q158.25 18.51 158.55 19.05Q158.84 19.60 159.38 19.90Q159.91 20.20 160.60 20.20L160.60 20.20Q161.76 20.20 162.58 19.22L162.58 19.22L164.09 20.58Q163.48 21.35 162.55 21.76Q161.63 22.17 160.47 22.17L160.47 22.17Q159.15 22.17 158.10 21.61Q157.05 21.05 156.45 20.05Q155.86 19.06 155.86 17.80ZM168.19 17.80L168.19 17.80Q168.19 16.55 168.80 15.55Q169.40 14.56 170.47 14.00Q171.53 13.43 172.86 13.43L172.86 13.43Q174.19 13.43 175.25 14.00Q176.32 14.56 176.92 15.55Q177.53 16.55 177.53 17.80L177.53 17.80Q177.53 19.05 176.92 20.04Q176.32 21.04 175.26 21.60Q174.19 22.17 172.86 22.17L172.86 22.17Q171.53 22.17 170.47 21.60Q169.40 21.04 168.80 20.04Q168.19 19.05 168.19 17.80ZM170.59 17.80L170.59 17.80Q170.59 18.51 170.89 19.05Q171.19 19.60 171.71 19.90Q172.23 20.20 172.86 20.20L172.86 20.20Q173.50 20.20 174.01 19.90Q174.53 19.60 174.83 19.05Q175.13 18.51 175.13 17.80L175.13 17.80Q175.13 17.09 174.83 16.54Q174.53 16 174.01 15.70Q173.50 15.40 172.86 15.40L172.86 15.40Q172.22 15.40 171.71 15.70Q171.19 16 170.89 16.54Q170.59 17.09 170.59 17.80ZM186.23 22L182.26 22L182.26 13.60L186.23 13.60Q187.61 13.60 188.68 14.12Q189.75 14.63 190.33 15.58Q190.92 16.53 190.92 17.80L190.92 17.80Q190.92 19.07 190.33 20.02Q189.75 20.97 188.68 21.48Q187.61 22 186.23 22L186.23 22ZM184.64 15.50L184.64 20.10L186.14 20.10Q187.21 20.10 187.87 19.49Q188.52 18.88 188.52 17.80L188.52 17.80Q188.52 16.72 187.87 16.11Q187.21 15.50 186.14 15.50L186.14 15.50L184.64 15.50ZM202.40 22L195.65 22L195.65 13.60L202.24 13.60L202.24 15.44L198.01 15.44L198.01 16.85L201.74 16.85L201.74 18.63L198.01 18.63L198.01 20.17L202.40 20.17L202.40 22ZM213.94 22L207.20 22L207.20 13.60L213.79 13.60L213.79 15.44L209.56 15.44L209.56 16.85L213.29 16.85L213.29 18.63L209.56 18.63L209.56 20.17L213.94 20.17L213.94 22Z" fill="#FFFFFF" x="105.22"/></svg>