<svg xmlns="http://www.w3.org/2000/svg" width="270.31999999999994" height="35" viewBox="0 0 270.31999999999994 35"><rect class="svg__rect" x="0" y="0" width="119.00999999999999" height="35" fill="#4192FF"/><rect class="svg__rect" x="117.00999999999999" y="0" width="153.30999999999997" height="35" fill="#389AD5"/><path class="svg__text" d="M15.31 22L13.59 22L16.23 17.70L13.65 13.47L15.36 13.47L17.15 16.55L18.95 13.47L20.66 13.47L18.08 17.70L20.72 22L18.99 22L17.15 18.87L15.31 22ZM30.38 22L24.80 22L24.80 13.47L30.34 13.47L30.34 14.66L26.28 14.66L26.28 17.02L29.79 17.02L29.79 18.19L26.28 18.19L26.28 20.82L30.38 20.82L30.38 22ZM36.06 22L34.57 22L34.57 13.47L37.57 13.47Q39.05 13.47 39.85 14.13Q40.65 14.79 40.65 16.05L40.65 16.05Q40.65 16.90 40.24 17.48Q39.83 18.06 39.09 18.37L39.09 18.37L41.01 21.92L41.01 22L39.42 22L37.71 18.71L36.06 18.71L36.06 22ZM36.06 14.66L36.06 17.52L37.58 17.52Q38.33 17.52 38.75 17.15Q39.17 16.77 39.17 16.11L39.17 16.11Q39.17 15.43 38.78 15.05Q38.39 14.68 37.62 14.66L37.62 14.66L36.06 14.66ZM44.78 18.00L44.78 18.00L44.78 17.52Q44.78 16.28 45.22 15.32Q45.66 14.37 46.47 13.86Q47.28 13.35 48.32 13.35Q49.36 13.35 50.17 13.85Q50.97 14.35 51.41 15.29Q51.85 16.23 51.86 17.48L51.86 17.48L51.86 17.96Q51.86 19.21 51.42 20.16Q50.99 21.10 50.18 21.61Q49.38 22.12 48.33 22.12L48.33 22.12Q47.29 22.12 46.48 21.61Q45.67 21.10 45.23 20.17Q44.79 19.23 44.78 18.00ZM46.26 17.46L46.26 17.96Q46.26 19.36 46.81 20.13Q47.36 20.90 48.33 20.90L48.33 20.90Q49.31 20.90 49.85 20.15Q50.38 19.40 50.38 17.96L50.38 17.96L50.38 17.51Q50.38 16.09 49.84 15.34Q49.30 14.58 48.32 14.58L48.32 14.58Q47.36 14.58 46.82 15.33Q46.27 16.09 46.26 17.46L46.26 17.46ZM56.05 18.19L56.05 18.19L56.05 17.39Q56.05 16.19 56.48 15.27Q56.91 14.35 57.71 13.85Q58.51 13.35 59.56 13.35L59.56 13.35Q60.97 13.35 61.83 14.12Q62.69 14.89 62.83 16.29L62.83 16.29L61.36 16.29Q61.25 15.37 60.82 14.96Q60.39 14.55 59.56 14.55L59.56 14.55Q58.59 14.55 58.07 15.26Q57.55 15.96 57.54 17.33L57.54 17.33L57.54 18.09Q57.54 19.47 58.04 20.20Q58.53 20.92 59.49 20.92L59.49 20.92Q60.36 20.92 60.80 20.53Q61.24 20.14 61.36 19.22L61.36 19.22L62.83 19.22Q62.70 20.59 61.82 21.35Q60.95 22.12 59.49 22.12L59.49 22.12Q58.47 22.12 57.69 21.63Q56.91 21.15 56.49 20.26Q56.07 19.37 56.05 18.19ZM66.88 18.00L66.88 18.00L66.88 17.52Q66.88 16.28 67.32 15.32Q67.76 14.37 68.57 13.86Q69.37 13.35 70.41 13.35Q71.46 13.35 72.26 13.85Q73.07 14.35 73.51 15.29Q73.95 16.23 73.95 17.48L73.95 17.48L73.95 17.96Q73.95 19.21 73.52 20.16Q73.09 21.10 72.28 21.61Q71.47 22.12 70.43 22.12L70.43 22.12Q69.39 22.12 68.58 21.61Q67.77 21.10 67.32 20.17Q66.88 19.23 66.88 18.00ZM68.36 17.46L68.36 17.96Q68.36 19.36 68.91 20.13Q69.45 20.90 70.43 20.90L70.43 20.90Q71.41 20.90 71.94 20.15Q72.47 19.40 72.47 17.96L72.47 17.96L72.47 17.51Q72.47 16.09 71.93 15.34Q71.40 14.58 70.41 14.58L70.41 14.58Q69.45 14.58 68.91 15.33Q68.37 16.09 68.36 17.46L68.36 17.46ZM80.87 22L78.42 22L78.42 13.47L80.94 13.47Q82.07 13.47 82.94 13.97Q83.82 14.48 84.30 15.40Q84.78 16.33 84.78 17.52L84.78 17.52L84.78 17.95Q84.78 19.16 84.30 20.08Q83.81 21.00 82.92 21.50Q82.03 22 80.87 22L80.87 22ZM79.90 14.66L79.90 20.82L80.87 20.82Q82.03 20.82 82.66 20.09Q83.28 19.36 83.29 17.99L83.29 17.99L83.29 17.52Q83.29 16.13 82.69 15.40Q82.09 14.66 80.94 14.66L80.94 14.66L79.90 14.66ZM94.82 22L89.25 22L89.25 13.47L94.78 13.47L94.78 14.66L90.73 14.66L90.73 17.02L94.23 17.02L94.23 18.19L90.73 18.19L90.73 20.82L94.82 20.82L94.82 22ZM104.60 22L99.02 22L99.02 13.47L104.56 13.47L104.56 14.66L100.50 14.66L100.50 17.02L104.01 17.02L104.01 18.19L100.50 18.19L100.50 20.82L104.60 20.82L104.60 22Z" fill="#FFFFFF"/><path class="svg__text" d="M130.77 17.80L130.77 17.80Q130.77 16.55 131.37 15.55Q131.98 14.56 133.04 14.00Q134.10 13.43 135.43 13.43L135.43 13.43Q136.76 13.43 137.83 14.00Q138.89 14.56 139.50 15.55Q140.10 16.55 140.10 17.80L140.10 17.80Q140.10 19.05 139.50 20.04Q138.89 21.04 137.83 21.60Q136.77 22.17 135.43 22.17L135.43 22.17Q134.10 22.17 133.04 21.60Q131.98 21.04 131.37 20.04Q130.77 19.05 130.77 17.80ZM133.17 17.80L133.17 17.80Q133.17 18.51 133.47 19.05Q133.77 19.60 134.29 19.90Q134.80 20.20 135.43 20.20L135.43 20.20Q136.07 20.20 136.59 19.90Q137.10 19.60 137.40 19.05Q137.70 18.51 137.70 17.80L137.70 17.80Q137.70 17.09 137.40 16.54Q137.10 16 136.59 15.70Q136.07 15.40 135.43 15.40L135.43 15.40Q134.80 15.40 134.28 15.70Q133.77 16 133.47 16.54Q133.17 17.09 133.17 17.80ZM147.21 22L144.83 22L144.83 13.60L148.68 13.60Q149.81 13.60 150.65 13.98Q151.49 14.35 151.95 15.06Q152.41 15.76 152.41 16.71L152.41 16.71Q152.41 17.66 151.95 18.35Q151.49 19.05 150.65 19.42Q149.81 19.80 148.68 19.80L148.68 19.80L147.21 19.80L147.21 22ZM147.21 15.47L147.21 17.93L148.53 17.93Q149.26 17.93 149.63 17.61Q150.01 17.29 150.01 16.71L150.01 16.71Q150.01 16.12 149.63 15.80Q149.26 15.47 148.53 15.47L148.53 15.47L147.21 15.47ZM163.90 22L157.16 22L157.16 13.60L163.75 13.60L163.75 15.44L159.52 15.44L159.52 16.85L163.25 16.85L163.25 18.63L159.52 18.63L159.52 20.17L163.90 20.17L163.90 22ZM171.04 22L168.71 22L168.71 13.60L170.67 13.60L174.38 18.07L174.38 13.60L176.70 13.60L176.70 22L174.75 22L171.04 17.52L171.04 22ZM188.25 21.24L188.25 21.24L189.03 19.49Q189.59 19.86 190.34 20.09Q191.08 20.32 191.80 20.32L191.80 20.32Q193.17 20.32 193.17 19.64L193.17 19.64Q193.17 19.28 192.78 19.11Q192.39 18.93 191.53 18.74L191.53 18.74Q190.58 18.53 189.94 18.30Q189.31 18.06 188.85 17.55Q188.40 17.03 188.40 16.16L188.40 16.16Q188.40 15.39 188.82 14.77Q189.23 14.15 190.07 13.79Q190.90 13.43 192.11 13.43L192.11 13.43Q192.94 13.43 193.74 13.62Q194.55 13.80 195.16 14.17L195.16 14.17L194.43 15.93Q193.23 15.28 192.10 15.28L192.10 15.28Q191.39 15.28 191.07 15.49Q190.75 15.70 190.75 16.04L190.75 16.04Q190.75 16.37 191.13 16.54Q191.51 16.71 192.36 16.89L192.36 16.89Q193.32 17.10 193.95 17.33Q194.58 17.56 195.05 18.07Q195.51 18.58 195.51 19.46L195.51 19.46Q195.51 20.21 195.09 20.83Q194.67 21.44 193.83 21.80Q192.99 22.17 191.79 22.17L191.79 22.17Q190.77 22.17 189.81 21.92Q188.85 21.67 188.25 21.24ZM199.66 17.80L199.66 17.80Q199.66 16.55 200.26 15.55Q200.87 14.56 201.93 14.00Q202.99 13.43 204.32 13.43L204.32 13.43Q205.65 13.43 206.72 14.00Q207.78 14.56 208.39 15.55Q208.99 16.55 208.99 17.80L208.99 17.80Q208.99 19.05 208.39 20.04Q207.78 21.04 206.72 21.60Q205.66 22.17 204.32 22.17L204.32 22.17Q202.99 22.17 201.93 21.60Q200.87 21.04 200.26 20.04Q199.66 19.05 199.66 17.80ZM202.06 17.80L202.06 17.80Q202.06 18.51 202.36 19.05Q202.66 19.60 203.17 19.90Q203.69 20.20 204.32 20.20L204.32 20.20Q204.96 20.20 205.48 19.90Q205.99 19.60 206.29 19.05Q206.59 18.51 206.59 17.80L206.59 17.80Q206.59 17.09 206.29 16.54Q205.99 16 205.48 15.70Q204.96 15.40 204.32 15.40L204.32 15.40Q203.68 15.40 203.17 15.70Q202.66 16 202.36 16.54Q202.06 17.09 202.06 17.80ZM213.65 18.26L213.65 18.26L213.65 13.60L216.03 13.60L216.03 18.19Q216.03 20.20 217.62 20.20L217.62 20.20Q219.21 20.20 219.21 18.19L219.21 18.19L219.21 13.60L221.55 13.60L221.55 18.26Q221.55 20.13 220.51 21.15Q219.47 22.17 217.60 22.17L217.60 22.17Q215.73 22.17 214.69 21.15Q213.65 20.13 213.65 18.26ZM229.01 22L226.64 22L226.64 13.60L230.48 13.60Q231.62 13.60 232.46 13.98Q233.30 14.35 233.75 15.06Q234.21 15.76 234.21 16.71L234.21 16.71Q234.21 17.62 233.78 18.30Q233.36 18.98 232.57 19.36L232.57 19.36L234.38 22L231.83 22L230.31 19.77L229.01 19.77L229.01 22ZM229.01 15.47L229.01 17.93L230.33 17.93Q231.07 17.93 231.44 17.61Q231.81 17.29 231.81 16.71L231.81 16.71Q231.81 16.12 231.44 15.79Q231.07 15.47 230.33 15.47L230.33 15.47L229.01 15.47ZM238.57 17.80L238.57 17.80Q238.57 16.54 239.17 15.54Q239.77 14.55 240.82 13.99Q241.87 13.43 243.19 13.43L243.19 13.43Q244.34 13.43 245.27 13.84Q246.19 14.25 246.80 15.02L246.80 15.02L245.29 16.39Q244.48 15.40 243.31 15.40L243.31 15.40Q242.63 15.40 242.09 15.70Q241.56 16 241.26 16.54Q240.97 17.09 240.97 17.80L240.97 17.80Q240.97 18.51 241.26 19.05Q241.56 19.60 242.09 19.90Q242.63 20.20 243.31 20.20L243.31 20.20Q244.48 20.20 245.29 19.22L245.29 19.22L246.80 20.58Q246.19 21.35 245.27 21.76Q244.34 22.17 243.19 22.17L243.19 22.17Q241.87 22.17 240.82 21.61Q239.77 21.05 239.17 20.05Q238.57 19.06 238.57 17.80ZM258.08 22L251.34 22L251.34 13.60L257.93 13.60L257.93 15.44L253.69 15.44L253.69 16.85L257.43 16.85L257.43 18.63L253.69 18.63L253.69 20.17L258.08 20.17L258.08 22Z" fill="#FFFFFF" x="130.01"/></svg>